<?xml version="1.0" encoding="UTF-8" standalone="no"?>
<svg width="48px" height="48px" viewBox="0 0 48 48" version="1.1" xmlns="http://www.w3.org/2000/svg" xmlns:xlink="http://www.w3.org/1999/xlink">
    <!-- Generator: Sketch 40.3 (33839) - http://www.bohemiancoding.com/sketch -->
    <title>emoji_neutral_circle [#553]</title>
    <desc>Created with Sketch.</desc>
    <defs></defs>
    <g id="Page-1" stroke="none" stroke-width="1" fill="none" fill-rule="evenodd">
        <g id="sprite" transform="translate(-360.000000, -328.000000)" fill="#2C2A37">
            <g id="emoji_neutral_circle-[#553]" transform="translate(360.000000, 328.000000)">
                <g id="Page-1">
                    <g>
                        <g id="03-MainEditor-V5.1-06-Graphics-Icons-NotFound">
                            <path d="M28.8,19.2 C28.8,16.548 30.948,14.4 33.6,14.4 C36.252,14.4 38.4,16.548 38.4,19.2 C38.4,21.852 36.252,24 33.6,24 C30.948,24 28.8,21.852 28.8,19.2 M9.6,19.2 C9.6,16.548 11.748,14.4 14.4,14.4 C17.052,14.4 19.2,16.548 19.2,19.2 C19.2,21.852 17.052,24 14.4,24 C11.748,24 9.6,21.852 9.6,19.2 M38.4,32.196 C38.4,33.5208 37.3248,34.596 36,34.596 L12,34.596 C10.6752,34.596 9.6,33.5208 9.6,32.196 C9.6,30.8712 10.6752,29.796 12,29.796 L36,29.796 C37.3248,29.796 38.4,30.8712 38.4,32.196 M24,43.2 C13.4136,43.2 4.8,34.5864 4.8,24 C4.8,13.4136 13.4136,4.8 24,4.8 C34.5864,4.8 43.2,13.4136 43.2,24 C43.2,34.5864 34.5864,43.2 24,43.2 M24,0 C10.7448,0 0,10.7448 0,24 C0,37.2552 10.7448,48 24,48 C37.2552,48 48,37.2552 48,24 C48,10.7448 37.2552,0 24,0" id="emoji_neutral_circle-[#553]"></path>
                        </g>
                    </g>
                </g>
            </g>
        </g>
    </g>
</svg>