<?xml version="1.0" encoding="UTF-8" standalone="no"?>
<svg width="22px" height="21px" viewBox="0 0 22 21" version="1.1" xmlns="http://www.w3.org/2000/svg" xmlns:xlink="http://www.w3.org/1999/xlink">
    <!-- Generator: Sketch 40.3 (33839) - http://www.bohemiancoding.com/sketch -->
    <title>Inspire</title>
    <desc>Created with Sketch.</desc>
    <defs></defs>
    <g id="Page-1" stroke="none" stroke-width="1" fill="none" fill-rule="evenodd">
        <g id="sprite" transform="translate(-389.000000, -5.000000)" fill="#F16078">
            <path d="M389.5,8.99936922 C389.5,6.79057859 391.290448,5 393.499369,5 L406.500631,5 C408.709421,5 410.5,6.79044819 410.5,8.99936922 L410.5,22.0006308 C410.5,24.2094214 408.709552,26 406.500631,26 L393.499369,26 C391.290579,26 389.5,24.2095518 389.5,22.0006308 L389.5,8.99936922 Z M398.894088,19.6856589 L396.764847,20.8006616 C396.216366,21.0878802 396.218237,21.0892392 396.323109,20.4801994 L396.729046,18.122716 C396.857823,17.3748422 396.557423,16.4536321 396.012184,15.9242465 L394.292605,14.2546675 C393.847527,13.8225314 393.845702,13.8281657 394.458747,13.7394356 L396.83931,13.3948808 C397.590887,13.2861 398.377859,12.71611 398.714027,12.0376405 L399.776785,9.89273122 C399.913201,9.61740981 399.980945,9.47870141 400.050321,9.47650314 C400.119697,9.47430486 400.188525,9.61304756 400.327102,9.89273122 L401.389861,12.0376405 C401.726647,12.717359 402.512225,13.2859878 403.264578,13.3948808 L405.645141,13.7394356 C406.257408,13.8280531 406.255796,13.82308 405.811283,14.2546675 L404.091704,15.9242465 C403.547025,16.4530879 403.246301,17.3762154 403.374842,18.122716 L403.780779,20.4801994 C403.885637,21.0891629 403.887453,21.0878445 403.339041,20.8006616 L401.2098,19.6856589 C400.53718,19.3334334 399.566891,19.3333372 398.894088,19.6856589 Z" id="Inspire"></path>
        </g>
    </g>
</svg>