<?xml version="1.0" encoding="UTF-8" standalone="no"?>
<svg width="30px" height="30px" viewBox="0 0 30 30" version="1.1" xmlns="http://www.w3.org/2000/svg" xmlns:xlink="http://www.w3.org/1999/xlink">
    <!-- Generator: Sketch 40.3 (33839) - http://www.bohemiancoding.com/sketch -->
    <title>Printable White Copy</title>
    <desc>Created with Sketch.</desc>
    <defs></defs>
    <g id="Page-1" stroke="none" stroke-width="1" fill="none" fill-rule="evenodd">
        <g id="sprite" transform="translate(-305.000000, -209.000000)" fill="#524E64">
            <path d="M305,212.999275 C305,210.790536 306.786795,209 308.999275,209 L331.000725,209 C333.209464,209 335,210.786795 335,212.999275 L335,235.000725 C335,237.209464 333.213205,239 331.000725,239 L308.999275,239 C306.790536,239 305,237.213205 305,235.000725 L305,212.999275 Z M313.587894,222.852807 C314.729,222.852807 315.654049,221.927758 315.654049,220.786652 C315.654049,219.645546 314.729,218.720497 313.587894,218.720497 C312.446788,218.720497 311.521739,219.645546 311.521739,220.786652 C311.521739,221.927758 312.446788,222.852807 313.587894,222.852807 Z M324.968396,222.246241 C324.691831,221.921529 324.181949,221.922642 323.906522,222.248465 L323.332904,222.930137 C323.009676,223.314898 322.407605,223.31601 322.080962,222.933473 L320.006152,220.498136 C319.627155,220.052214 318.924929,220.053326 318.54707,220.502584 L313.112502,226.955672 C312.769926,227.363785 313.065839,227.977624 313.606451,227.978736 L328.757229,227.994304 C329.197685,227.994304 329.43783,227.493892 329.156712,227.163621 L324.968396,222.246241 Z" id="Printable-White-Copy"></path>
        </g>
    </g>
</svg>