<?xml version="1.0" encoding="UTF-8" standalone="no"?><svg width="144" height="96" viewBox="0 0 144 96" xmlns="http://www.w3.org/2000/svg" xmlns:xlink="http://www.w3.org/1999/xlink"><svg width="48" height="48" viewBox="0 0 48 48" id="weather-clear"><defs><linearGradient id="ak"><stop offset="0" stop-color="#fff" stop-opacity="0"/><stop offset=".75" stop-color="#fff" stop-opacity="0"/><stop offset="1" stop-color="#fff"/></linearGradient><linearGradient id="aj"><stop offset="0" stop-color="#fff7c2" stop-opacity=".638"/><stop offset=".594" stop-color="#fcaf3e" stop-opacity=".183"/><stop offset=".839" stop-color="#fcaf3e" stop-opacity=".505"/><stop offset="1" stop-color="#fcaf3e"/></linearGradient><linearGradient id="ai"><stop offset="0" stop-color="#fff9c6"/><stop offset=".542" stop-color="#fff28c"/><stop offset="1" stop-color="#ffea85"/></linearGradient><linearGradient id="ah"><stop offset="0"/><stop offset="1" stop-opacity="0"/></linearGradient><linearGradient id="ac"><stop offset="0" stop-color="#fff"/><stop offset="1" stop-color="#fff" stop-opacity="0"/></linearGradient><linearGradient id="aa"><stop offset="0" stop-color="#fff"/><stop offset="1" stop-color="#fff" stop-opacity="0"/></linearGradient><linearGradient id="ag"><stop offset="0" stop-color="#edd400"/><stop offset="1" stop-color="#edd400" stop-opacity="0"/></linearGradient><linearGradient id="ab"><stop offset="0" stop-color="#fcaf3e" stop-opacity="0"/><stop offset=".666" stop-color="#fcaf3e" stop-opacity=".174"/><stop offset=".865" stop-color="#fcaf3e" stop-opacity=".56"/><stop offset="1" stop-color="#fcaf3e"/></linearGradient><linearGradient id="af"><stop offset="0" stop-color="#fce94f"/><stop offset="1" stop-color="#fce94f" stop-opacity="0"/></linearGradient><linearGradient id="ae"><stop offset="0" stop-color="#eeeeec"/><stop offset="1" stop-color="#eeeeec" stop-opacity="0"/></linearGradient><linearGradient id="ad"><stop offset="0" stop-color="#fff"/><stop offset="1" stop-color="#fff" stop-opacity="0"/></linearGradient><linearGradient xlink:href="#ai" id="an" gradientUnits="userSpaceOnUse" x1="-28.969" y1="-25.327" x2="-37.197" y2="-9.559"/><radialGradient xlink:href="#aj" id="am" cx="-33.519" cy="-22.113" fx="-33.519" fy="-22.113" r="9.5" gradientUnits="userSpaceOnUse" gradientTransform="matrix(.48774 1.2924 -1.10267 .49724 -41.774 32.415)"/><radialGradient xlink:href="#ak" id="al" cx="24" cy="23.382" fx="24" fy="23.382" r="19.142" gradientTransform="matrix(1.0067 0 0 1.00752 -.16 .427)" gradientUnits="userSpaceOnUse"/></defs><g opacity=".7" stroke-linecap="square"><path d="M24 2.5l-2.375 6.688a15.073 15.073 0 0 1 4.75 0L24 2.5zM8.812 8.781l3.032 6.438a15.224 15.224 0 0 1 3.375-3.375L8.813 8.78zm30.407 0l-6.438 3.063c1.29.935 2.44 2.085 3.375 3.375L39.22 8.78zM9.187 21.594L2.5 23.969l6.688 2.375a15.07 15.07 0 0 1 0-4.75zm29.626.031a15.073 15.073 0 0 1 0 4.75L45.5 24l-6.688-2.375zm-26.97 11.156l-3.03 6.407 6.406-3.032a15.224 15.224 0 0 1-3.375-3.375zm24.313 0a15.228 15.228 0 0 1-3.343 3.344l6.406 3.063-3.063-6.407zm-14.531 6.032L24 45.5l2.375-6.688a15.073 15.073 0 0 1-4.75 0z" fill="#fce94f" stroke="#fcaf3e" stroke-width=".737"/><path d="M24 5.25l-1.344 3.813C23.1 9.023 23.547 9 24 9c.453 0 .901.023 1.344.063L24 5.25zm-13.219 5.5l1.719 3.625a15.488 15.488 0 0 1 1.906-1.906l-3.625-1.719zm26.469 0l-3.625 1.719c.68.57 1.337 1.226 1.906 1.906l1.719-3.625zM9.062 22.625l-3.78 1.344 3.78 1.343C9.025 24.88 9 24.442 9 24c0-.464.021-.922.063-1.375zm29.876.031c.039.443.062.891.062 1.344 0 .453-.023.901-.063 1.344L42.72 24l-3.782-1.344zM35.53 33.594a15.582 15.582 0 0 1-1.906 1.937l3.625 1.719-1.719-3.656zm-23.031.031l-1.719 3.594 3.594-1.719a15.38 15.38 0 0 1-1.875-1.875zm10.156 5.313L24 42.718l1.344-3.78C24.9 38.977 24.453 39 24 39c-.453 0-.901-.023-1.344-.063z" fill="none" stroke="url(#al)" stroke-width=".846"/></g><path transform="matrix(.77806 -1.06129 1.06129 .77806 67.48 3.641)" d="M-22.5-17.5a9.5 9.5 0 1 1-19 0 9.5 9.5 0 1 1 19 0z" fill="#ffee54" stroke="#fcaf3e" stroke-width=".76" stroke-linecap="square"/><path transform="matrix(1.24426 -.1677 .21664 1.25184 67.616 40.527)" d="M-22.5-17.5a9.5 9.5 0 1 1-19 0 9.5 9.5 0 1 1 19 0z" fill="url(#am)"/><path transform="matrix(.7158 -.97635 .97635 .7158 64 5.27)" d="M-22.5-17.5a9.5 9.5 0 1 1-19 0 9.5 9.5 0 1 1 19 0z" fill="none" stroke="url(#an)" stroke-width=".826" stroke-linecap="square"/></svg><svg width="48" height="48" viewBox="0 0 48 48" id="weather-clear-night" x="48"><defs><linearGradient id="ba"><stop offset="0" stop-color="#787974"/><stop offset="1" stop-color="#787974" stop-opacity="0"/></linearGradient><radialGradient xlink:href="#ba" id="bj" gradientUnits="userSpaceOnUse" gradientTransform="matrix(.02129 0 0 .02759 323.367 -435.104)" cx="97.468" cy="-405.912" fx="97.468" fy="-405.912" r="358.446"/><linearGradient id="bi"><stop offset="0"/><stop offset="1" stop-opacity="0"/></linearGradient><linearGradient id="bd"><stop offset="0" stop-color="#fff"/><stop offset="1" stop-color="#fff" stop-opacity="0"/></linearGradient><linearGradient id="bb"><stop offset="0" stop-color="#fff"/><stop offset="1" stop-color="#fff" stop-opacity="0"/></linearGradient><linearGradient id="bh"><stop offset="0" stop-color="#edd400"/><stop offset="1" stop-color="#edd400" stop-opacity="0"/></linearGradient><linearGradient id="bc"><stop offset="0" stop-color="#fcaf3e"/><stop offset="1" stop-color="#fcaf3e" stop-opacity="0"/></linearGradient><linearGradient id="bg"><stop offset="0" stop-color="#fce94f"/><stop offset="1" stop-color="#fce94f" stop-opacity="0"/></linearGradient><linearGradient id="bf"><stop offset="0" stop-color="#eeeeec"/><stop offset="1" stop-color="#eeeeec" stop-opacity="0"/></linearGradient><linearGradient id="be"><stop offset="0" stop-color="#fff"/><stop offset="1" stop-color="#fff" stop-opacity="0"/></linearGradient></defs><g transform="matrix(.9987 0 0 .9987 -342.541 469.412)"><path d="M380.518-446.125a13.518 13.518 0 1 1-27.036 0 13.518 13.518 0 1 1 27.036 0z" fill="#eaece8"/><g transform="translate(37.125 -1.625)"><path d="M323.846-456.078c.049.176-.126.394-.28.599-.2.268-.31.447-.079.678.143.143.579.016.718-.04.322-.129.674-.23.998-.36.246-.097.43-.136.678-.199.287-.071.572.057.679.2.068.09-.462.49-.52.519a3.493 3.493 0 0 1-.717.279c-.302.075-.572.178-.878.24a2.298 2.298 0 0 0-.798.319c-.34.204-.626.506-.918.798-.273.272-.367.567-.28.917.085.338.21.457.52.52.343.068.51-.096.678-.32.218-.291.301-.66.558-.918.215-.215.362-.421.599-.598.24-.18.42-.274.718-.2.247.062.449.305.718.36.228.045.562-.262.759-.36.042-.021.08-.053.12-.08.207-.138.55-.08.797-.08.27 0 .496.129.719.24.268.134.5.126.758.32.272.204.419.358.558.638.132.264.19.43.4.638.22.22.56.36.798.599.142.143.232.531.279.718.073.293.14.599 0 .878-.151.302-.332.584-.479.878-.145.289-.55.531-.798.718-.343.257-.751.272-1.077.598-.376.376-.411.596-.759 1.118-.257.385.05.556.36.479l.957-.24.16-.04c.4-.1.718-.419 1.117-.518.497-.125 1.543.646 1.995.917.357.214-.069.633-.24.719-.316.158-.632.2-.997.2-.236 0-.492-.075-.718-.12-.305-.062-.518-.061-.758.12-.267.2-.236.457-.08.717.156.26.41.444.479.719.086.346-.194.53-.44.678-.246.148-.671-.04-.957-.04-.361 0-.711.185-.997.4-.13.096-.243.612-.28.757l-.04.16c-.097.389.028.587.16.918.096.239.328.456.439.678.138.277.23.46.08.758-.128.255-.176.463-.24.719-.044.179.208.658.28.837.144.361.01.43-.24.679-.22.22-.551.276-.798.399-.229.114-.68-.02-.918-.08-.267-.067-.515.058-.718.16-.322.16-.321.316-.559 0-.251-.336-.46-.686-.558-1.078l-.04-.16c-.067-.267-.04-.595-.04-.877 0-.288.08-.545.08-.838 0-.316-.755.278-.958.359-.094.038-.186.08-.28.12-.398.17-.358.535-.358.878 0 .341.2.602.2.957 0 .343-.404.44-.68.44-.39 0-.571-.453-.837-.72-.254-.253-.688-.537-.838-.837-.212-.424-.284-.665.16-.998.254-.19.608-.226.798-.478.199-.266.481-.638 0-.759-.329-.082-.456-.196-.838-.12l-.2.04c-.66.132-.655.072-1.277-.239-.447-.224-.6-.561-.918-.878-.295-.295-.462-.692-.558-1.077-.089-.355-.194-.695-.28-1.038-.07-.28-.08-.625-.08-.917 0-.298-.08-.614-.08-.918v-.998c0-.336.04-.634.04-.958 0-.277.055-.616.12-.877.007-.026 0-.054 0-.08 0-.34.197-.692.32-.998.107-.269.274-.55.399-.798.13-.26.26-.48.439-.718.192-.256.396-.516.598-.758a9.562 9.562 0 0 1 1.117-1.158c.24-.204.357-.546.639-.758.349-.261.652-.539.998-.798a2.54 2.54 0 0 0 .678-.718c.143-.24.224-.464.439-.678.052-.053.23-.135.28-.16z" opacity=".106" fill="#787974" fill-rule="evenodd"/><path d="M334.86-450.97c-.385.092-1.153.224-1.676.12-.401-.08-.415-.305-.798.08l-.08.079c-.243.242-.28.279-.28.638 0 .237.004.462-.04.679-.046.233-.011.592.04.798.079.314.128.535.28.838.12.242.177.432.399.598.288.216.684.274.997.4.221.088.591.04.838.04.314 0 .36.035.36.398 0 .312-.586.75-.759 1.038-.19.318-.118.564 0 .918.088.263.145.524.2.798.057.285.131.49.359.718.242.242.689-.026.918.28.115.153.12.407.12.598 0 .317.102.467.398.32.27-.136.473-.126.679-.4.196-.261.294-.588.439-.878.129-.258.35-.28.638-.28.267 0 .481.07.758 0 .407-.1.469-.228.759-.518.366-.367.323-.622.399-1.077.034-.206-.034-.455-.08-.639l-.04-.16c-.056-.222-.544-.239-.718-.239-.386 0-.958-.19-1.317-.28-.184-.045-.692-.651-.838-.797-.211-.211-.253-.371-.32-.639-.082-.329-.038-.672-.12-.997-.092-.373.017-.583-.278-.878a1.53 1.53 0 0 1-.4-.758c-.05-.253-.287-.535-.478-.679-.14-.105-.157-.079-.36-.12z" opacity=".189" fill="#787974" fill-rule="evenodd"/><path d="M341.005-448.656c-.207.007-.419.259-.599.439-.177.177-.12.48-.12.718 0 .26.056.544.12.798.054.216.253.493.4.639.22.22.501.35.797.399.388.065.602.111.758-.28.108-.268.16-.453.16-.758 0-.276-.012-.488-.08-.758-.081-.326-.186-.492-.479-.638-.207-.104-.418-.344-.598-.48-.104-.077-.236-.079-.36-.079z" opacity=".183" fill="#787974" fill-rule="evenodd"/><path d="M328.355-436.206c.217-.148.846-.794 1.277-1.117.083-.063.16-.133.24-.2.43-.358.805-.928 1.117-1.396.495-.744.713-1.411.878-2.235.21-1.046.262-.348.04.32-.035.103-.054.212-.08.318-.11.437-.152.9-.32 1.317-.225.564-.65 1.049-.797 1.636-.079.314-.185.697-.12.958.078.312.533-.377.838-.479.415-.138.519-.229.519.24 0 .283-.143.673-.2.957-.098.49 1.288.077 1.596 0 1.008-.252 1.698-.597 2.514-1.277.898-.748 1.646-1.565 2.474-2.394.667-.667.98-1.085.559.04l-.12.32-.12.318c-.22.59-.623 1.241-1.157 1.597-.83.554-1.37 1.582-2.274 2.035-.367.183-.75.255-1.118.439-.37.184.719.315.918.359 2.003.445-1.621.638-2.075.638-.748 0-1.123-.156-1.716.2-.202.121.944.587.998.598.467.094.885.4 1.397.4.85 0-1.773.264-2.514.08-.622-.156-1.21-.283-1.836-.44-.318-.08-.636-.03-.918.04-.056.014.04.824.04.918 0 .59-.155 1.052-.439.2-.153-.46-.439-.945-.439-1.437 0-.312-.411.469-.598.718-.264.351-.782.854-.878.878-.013.003.258-.554.359-.958.076-.303.566-1.115.24-1.197-.306-.076-.726-.017-1.038-.08-.464-.092-.96-.18-1.397-.399-.844-.422-2.163-.81-3.072-1.037-.084-.021-1.456-1.496-.16-.2.856.856 2.19 1.437 3.392 1.437.385 0 .956-.15 1.317-.24.217-.054.516-.382.758-.478.262-.105-.418-.382-.599-.599l-.2-.24c-.715-.858-.966-2.043-1.795-2.872-.133-.134-2.078-2.404-1.157-1.636.952.793 1.832 1.498 2.634 2.434.41.48.764 1.105 1.157 1.596.395.493.311-.103.2-.44-.24-.72-.12-1.72-.12-2.473 0-.998.515 1.024.558 1.197.124.496.38 1.142.758.638.39-.52.44-.618.44.04v.16c0 .248-.014.533.04.798z" opacity=".472" fill="#f3f4f2" fill-rule="evenodd"/><path d="M340.047-444.985c.08.085.16.377.16.639 0 .106-.66.62-.759.718-.191.192-.23.515-.279.758-.063.313-.141.53-.08.838.052.26.16.52.28.758.143.287.35.431.598.679.276.275.616.273.958.359.435.108-.258.523-.36.598-.267.201-.528.26-.678.559-.172.346.185.473.4.559.241.096.606-.33.718-.48.15-.2.399-.426.399-.678 0-.247.12-.508.12-.798 0-.27.06-.564.12-.798.088-.355.216-.496.438-.718.179-.179.174-.62.12-.838-.063-.25-.22-.477-.28-.718-.061-.246-.362-.39-.558-.44-.236-.058-.568-.487-.718-.638-.208-.207-.3-.359-.599-.359z" opacity=".117" fill="#787974" fill-rule="evenodd"/><path d="M322.689-446.022c-.01-.01.026 0 0 0z" fill="none" stroke="#000" stroke-width="1.001"/><path d="M327.597-455.679c.172-.043.572-.173.838-.24.34-.084.697.12 1.038.12.034 0 .255.44.638.44h.16c.241 0 .511.192.678.358.16.161.014.545-.08.639-.254.254-.481.077-.678-.12-.21-.21-.321-.29-.599-.359-.275-.069-.57-.027-.838.04-.327.082-.542.16-.918.16-.125 0-.512-.546-.558-.639-.082-.164.219-.374.32-.399z" opacity=".2" fill="#938f8b" fill-rule="evenodd"/><path d="M332.425-455c.198.05.64.039.958-.04.352-.088.908-.133 1.277-.04.223.055 1.587.323.958.638-.312.156-.642.193-.918.36-.333.199.402.278.559.278.424 0 .18.511.08.679-.158.261-.051.666 0 .918.056.285.547.24.797.24.344 0 .632.044.838.318.183.243.435.488.32.719-.12.237-.722.279-.918.279-.152 0-.75-.763-.838-.838-.23-.198-.5-.015-.718.04-.39.097-.676-.397-.918-.599-.262-.218-.425-.53-.559-.798-.169-.338.104-.479-.399-.479-.312 0-.483-.063-.718-.24-.32-.239-.559-.146-.559-.598 0-.398.022-.515.36-.718.108-.065.253-.033.398-.12z" opacity=".289" fill="#938f8b" fill-rule="evenodd"/><path d="M323.877-456.19c.048.176-.126.394-.28.599-.201.268-.31.447-.08.678.144.143.58.016.719-.04.321-.128.673-.23.997-.359.246-.098.43-.137.679-.2.287-.071.571.058.678.2.068.09-.462.49-.519.519a3.493 3.493 0 0 1-.718.28c-.302.075-.571.177-.878.239a2.298 2.298 0 0 0-.798.319c-.34.204-.626.506-.918.798-.272.272-.367.567-.279.918.084.337.21.457.519.518.343.07.51-.095.678-.319.218-.29.302-.66.559-.918.215-.215.362-.42.598-.598.24-.18.421-.274.719-.2.247.062.448.306.718.36.227.045.562-.261.758-.36.043-.021.08-.053.12-.08.207-.138.55-.08.798-.08.269 0 .496.13.718.24.269.134.5.126.758.32.273.204.42.358.559.638.132.264.19.43.399.638.22.221.56.361.798.599.143.143.233.531.28.718.073.293.139.6 0 .878-.151.302-.332.584-.48.878-.144.29-.549.531-.798.718-.343.257-.75.272-1.077.599-.375.375-.41.596-.758 1.117-.257.385.049.556.36.479l.957-.24.16-.04c.4-.1.717-.418 1.117-.518.497-.125 1.543.646 1.995.918.357.214-.07.633-.24.718-.316.158-.633.2-.997.2-.236 0-.493-.075-.718-.12-.306-.061-.518-.061-.759.12-.267.2-.236.457-.08.718.157.26.41.443.48.718.086.346-.194.53-.44.678-.246.148-.672-.04-.957-.04-.362 0-.712.185-.998.4-.13.097-.243.613-.28.758l-.039.16c-.097.388.027.586.16.917.095.24.328.456.439.678.138.277.229.46.08.758-.128.255-.176.463-.24.719-.045.179.207.658.28.838.143.36.01.429-.24.678-.221.22-.552.276-.798.4-.23.114-.681-.022-.918-.08-.267-.067-.515.057-.718.159-.322.161-.321.317-.559 0-.252-.336-.46-.686-.559-1.078l-.04-.16c-.066-.267-.04-.595-.04-.877 0-.288.08-.545.08-.838 0-.316-.754.278-.957.36-.094.037-.187.079-.28.119-.398.17-.359.535-.359.878 0 .341.2.602.2.957 0 .343-.404.44-.679.44-.39 0-.572-.453-.838-.719-.254-.254-.688-.538-.838-.838-.212-.424-.283-.665.16-.997.254-.191.608-.226.798-.48.2-.265.482-.637 0-.757-.328-.083-.455-.197-.838-.12l-.2.04c-.659.132-.654.071-1.276-.24-.448-.224-.601-.56-.918-.878-.295-.295-.462-.692-.559-1.077-.088-.355-.193-.695-.279-1.037-.07-.281-.08-.626-.08-.918 0-.297-.08-.614-.08-.918v-.998c0-.336.04-.634.04-.957 0-.278.054-.616.12-.878.006-.026 0-.053 0-.08 0-.34.197-.692.32-.998.107-.269.274-.549.398-.798.13-.26.261-.48.44-.718.191-.256.396-.516.598-.758a9.561 9.561 0 0 1 1.117-1.157c.239-.205.357-.547.638-.759.35-.261.653-.539.998-.798a2.54 2.54 0 0 0 .678-.718c.144-.24.225-.464.44-.678.052-.053.23-.135.279-.16z" opacity=".178" fill="url(#bj)" fill-rule="evenodd"/><path d="M327.597-443.947a.678.678 0 1 1-1.357 0 .678.678 0 1 1 1.357 0z" opacity=".617" fill="#fff"/><path d="M321.093-449.334a.36.36 0 1 1-.718 0 .36.36 0 1 1 .718 0z" opacity=".544" fill="#fff"/><path d="M337.374-444.705a.678.678 0 1 1-1.357 0 .678.678 0 1 1 1.357 0z" opacity=".544" fill="#c2c3be"/><path d="M332.266-434.49a.678.678 0 1 1-1.357 0 .678.678 0 1 1 1.357 0z" opacity=".567" fill="#c2c3be"/><path d="M336.496-444.546a.439.439 0 1 1-.878 0 .439.439 0 1 1 .878 0zM328.196-434.011a.36.36 0 1 1-.719 0 .36.36 0 1 1 .719 0zM334.82-438.64a.439.439 0 1 1-.878 0 .439.439 0 1 1 .878 0zM340.007-450.053a.439.439 0 1 1-.878 0 .439.439 0 1 1 .878 0zM336.974-449.254a.439.439 0 1 1-.877 0 .439.439 0 1 1 .877 0zM338.172-453.724a.439.439 0 1 1-.878 0 .439.439 0 1 1 .878 0zM329.313-440.476a.439.439 0 1 1-.878 0 .439.439 0 1 1 .878 0z" opacity=".617" fill="#fff"/><path d="M328.314-435.943c.2-.136.783-.727 1.183-1.023.077-.057.148-.121.222-.182.399-.328.746-.85 1.036-1.279.459-.68.66-1.291.813-2.045.194-.958.243-.318.037.292-.032.095-.049.195-.074.292-.1.4-.14.823-.295 1.206-.21.516-.604.96-.74 1.497-.073.287-.172.638-.111.877.072.285.494-.345.777-.439.385-.126.48-.21.48.22 0 .259-.132.616-.185.876-.09.448 1.194.07 1.48 0 .934-.23 1.574-.546 2.33-1.169.833-.685 1.525-1.433 2.293-2.191.618-.61.909-.993.518.036l-.11.293-.112.292c-.205.539-.578 1.135-1.072 1.46-.77.508-1.27 1.45-2.109 1.864-.34.167-.694.233-1.035.401-.343.17.666.289.85.33 1.857.407-1.502.583-1.923.583-.694 0-1.04-.143-1.59.183-.188.111.874.538.924.548.434.086.82.365 1.295.365.788 0-1.643.243-2.33.073-.576-.142-1.122-.258-1.702-.401-.294-.073-.59-.028-.85.036-.052.013.037.754.037.84 0 .541-.144.963-.407.183-.142-.42-.407-.865-.407-1.315 0-.285-.382.43-.555.657-.244.322-.725.782-.814.804-.012.003.24-.507.333-.877.07-.277.525-1.02.222-1.096-.282-.07-.672-.015-.961-.073-.43-.084-.89-.165-1.295-.365-.783-.386-2.005-.741-2.848-.95-.078-.019-1.349-1.368-.148-.182.793.783 2.03 1.315 3.144 1.315.357 0 .887-.137 1.22-.22.202-.049.48-.35.703-.438.243-.096-.387-.35-.555-.548l-.184-.219c-.663-.785-.896-1.87-1.665-2.63-.123-.122-1.926-2.2-1.072-1.497.882.726 1.697 1.372 2.44 2.228.382.44.71 1.012 1.073 1.461.366.452.289-.094.185-.402-.222-.66-.11-1.576-.11-2.264 0-.914.477.937.517 1.095.115.454.353 1.046.703.585.362-.476.407-.567.407.036v.146c0 .227-.013.488.037.731z" fill="#fff" fill-rule="evenodd"/><g transform="translate(461.697 -517.207)" opacity=".317" fill="#a3a4a0"><path d="M-125.865 68.418a1.768 1.68 0 1 1-3.536 0 1.768 1.68 0 1 1 3.536 0zM-123.92 72.395a1.768 1.68 0 1 1-3.536 0 1.768 1.68 0 1 1 3.536 0z"/><path d="M-121.976 72.338a1.15 1.092 0 1 1-2.298 0 1.15 1.092 0 1 1 2.298 0zM-131.787 66.836a2.74 2.603 0 1 1-5.48 0 2.74 2.603 0 1 1 5.48 0zM-137.09 72.992a3.182 3.023 0 1 1-6.364 0 3.182 3.023 0 1 1 6.364 0z"/><path d="M-133.643 75.79a2.475 2.351 0 1 1-4.95 0 2.475 2.351 0 1 1 4.95 0zM-135.234 69.213a2.475 2.351 0 1 1-4.95 0 2.475 2.351 0 1 1 4.95 0z"/></g><path d="M329.07-434.735a.663.663 0 1 1-1.325 0 .663.663 0 1 1 1.325 0z" fill="#fff"/></g><path d="M380.537-446.018a13.518 13.518 0 1 1-27.037 0 13.518 13.518 0 1 1 27.037 0z" fill="none" stroke="#888a85" stroke-width="1.0010457799999999"/><path transform="matrix(.77807 -1.0613 1.0613 .77807 410.472 -466.346)" d="M-22.5-17.5a9.5 9.5 0 1 1-19 0 9.5 9.5 0 1 1 19 0z" fill="none" stroke="#fff" stroke-width=".761" stroke-linecap="square"/></g></svg><svg width="48" height="48" viewBox="0 0 48 48" id="weather-few-clouds" y="48"><defs><linearGradient xlink:href="#ca" id="cz" gradientUnits="userSpaceOnUse" x1="284.802" y1="-441.233" x2="288.9" y2="-436.831"/><linearGradient xlink:href="#cb" id="cy" gradientUnits="userSpaceOnUse" x1="286.666" y1="-439.484" x2="289.766" y2="-436.707"/><linearGradient xlink:href="#cc" id="cx" gradientUnits="userSpaceOnUse" x1="275.942" y1="-437.105" x2="279.975" y2="-431.918"/><linearGradient xlink:href="#ca" id="cw" gradientUnits="userSpaceOnUse" x1="285.941" y1="-439.939" x2="289.391" y2="-436.443"/><linearGradient xlink:href="#cd" id="cv" gradientUnits="userSpaceOnUse" x1="286.512" y1="-441.291" x2="289.854" y2="-436.145"/><linearGradient xlink:href="#ce" id="cu" gradientUnits="userSpaceOnUse" x1="287.517" y1="-439.753" x2="289.676" y2="-436.322"/><linearGradient xlink:href="#cf" id="ct" gradientUnits="userSpaceOnUse" x1="271.022" y1="-441.052" x2="285.029" y2="-431.97"/><linearGradient xlink:href="#ca" id="cp" gradientUnits="userSpaceOnUse" x1="284.802" y1="-441.233" x2="288.9" y2="-436.831"/><linearGradient id="cb"><stop offset="0" stop-color="#fff"/><stop offset="1" stop-color="#fff" stop-opacity="0"/></linearGradient><linearGradient xlink:href="#cb" id="co" gradientUnits="userSpaceOnUse" x1="286.666" y1="-439.484" x2="289.766" y2="-436.707"/><linearGradient id="cc"><stop offset="0" stop-color="#fff"/><stop offset="1" stop-color="#fff" stop-opacity="0"/></linearGradient><linearGradient xlink:href="#cc" id="cn" gradientUnits="userSpaceOnUse" x1="275.942" y1="-437.105" x2="279.975" y2="-431.918"/><linearGradient id="ca"><stop offset="0" stop-color="#fff"/><stop offset="1" stop-color="#fff" stop-opacity="0"/></linearGradient><linearGradient xlink:href="#ca" id="cm" gradientUnits="userSpaceOnUse" x1="285.941" y1="-439.939" x2="289.391" y2="-436.443"/><linearGradient id="cd"><stop offset="0" stop-color="#fff"/><stop offset="1" stop-color="#fff" stop-opacity="0"/></linearGradient><linearGradient xlink:href="#cd" id="cl" gradientUnits="userSpaceOnUse" x1="286.512" y1="-441.291" x2="289.854" y2="-436.145"/><linearGradient id="ce"><stop offset="0" stop-color="#fff"/><stop offset="1" stop-color="#fff" stop-opacity="0"/></linearGradient><linearGradient xlink:href="#ce" id="ck" gradientUnits="userSpaceOnUse" x1="287.517" y1="-439.753" x2="289.676" y2="-436.322"/><linearGradient id="cf"><stop offset="0" stop-color="#fff"/><stop offset="1" stop-color="#fff" stop-opacity="0"/></linearGradient><linearGradient xlink:href="#cf" id="cj" gradientUnits="userSpaceOnUse" x1="271.022" y1="-441.052" x2="285.029" y2="-431.97"/><linearGradient id="ci"><stop offset="0" stop-color="#fff" stop-opacity="0"/><stop offset=".75" stop-color="#fff" stop-opacity="0"/><stop offset="1" stop-color="#fff"/></linearGradient><linearGradient id="ch"><stop offset="0" stop-color="#fff7c2" stop-opacity=".638"/><stop offset=".594" stop-color="#fcaf3e" stop-opacity=".183"/><stop offset=".839" stop-color="#fcaf3e" stop-opacity=".505"/><stop offset="1" stop-color="#fcaf3e"/></linearGradient><linearGradient id="cg"><stop offset="0" stop-color="#fff9c6"/><stop offset=".542" stop-color="#fff28c"/><stop offset="1" stop-color="#ffea85"/></linearGradient><linearGradient xlink:href="#cg" id="cs" gradientUnits="userSpaceOnUse" x1="-28.969" y1="-25.327" x2="-37.197" y2="-9.559"/><radialGradient xlink:href="#ch" id="cr" cx="-33.519" cy="-22.113" fx="-33.519" fy="-22.113" r="9.5" gradientUnits="userSpaceOnUse" gradientTransform="matrix(.48774 1.2924 -1.10267 .49724 -41.774 32.415)"/><radialGradient xlink:href="#ci" id="cq" cx="24" cy="23.382" fx="24" fy="23.382" r="19.142" gradientTransform="matrix(1.0067 0 0 1.00752 -.16 .427)" gradientUnits="userSpaceOnUse"/></defs><g transform="translate(-263.99 459.986)"><path d="M280.5-445.5c-2.27 0-4.11 1.55-4.719 3.625-.693-.364-1.444-.625-2.281-.625-2.76 0-5 2.24-5 5 0 .579.163 1.108.344 1.625-1.374.77-2.344 2.189-2.344 3.875 0 2.484 2.016 4.5 4.5 4.5h19c2.484 0 4.5-2.016 4.5-4.5 0-1.686-.97-3.104-2.344-3.875.181-.517.344-1.046.344-1.625 0-2.76-2.24-5-5-5-.837 0-1.588.261-2.281.625-.61-2.075-2.448-3.625-4.719-3.625z" fill="#c4c5c2" stroke="#888a85" stroke-miterlimit="2"/><path d="M280.5-445c-2.19 0-3.724 1.336-4.396 3.844-.668-.344-1.547-.834-2.354-.834-2.717 0-4.755 1.939-4.755 4.546 0 .546.267 1.333.442 1.822-1.325.728-2.437 1.89-2.437 3.372 0 2.346 1.546 4.25 4.34 4.25h18.32c2.772 0 4.34-1.904 4.34-4.25 0-1.592-1.112-2.666-2.437-3.394.175-.489.464-1.254.464-1.8 0-2.607-2.116-4.568-4.777-4.568-.807 0-1.642.49-2.31.833-.65-2.421-2.25-3.821-4.44-3.821z" fill="url(#cj)"/><path d="M284-440.5a3.5 3.5 0 1 1-7 0 3.5 3.5 0 1 1 7 0z" fill="#c4c5c2"/><path d="M291.688-437.594a3.313 3.313 0 1 1-6.625 0 3.313 3.313 0 1 1 6.625 0z" transform="matrix(1.0566 0 0 1.0566 -24.198 21.863)" fill="url(#ck)"/><path fill="#c4c5c2" d="M271-438h20v9h-20z"/><path d="M274-432a3 3 0 1 1-6 0 3 3 0 1 1 6 0zM291-437.5a3.5 3.5 0 1 1-7 0 3.5 3.5 0 1 1 7 0z" fill="#c4c5c2"/><path d="M291.688-437.594a3.313 3.313 0 1 1-6.625 0 3.313 3.313 0 1 1 6.625 0z" transform="matrix(1.0566 0 0 1.0566 -17.198 24.863)" fill="url(#cl)"/><path d="M277-437.5a3.5 3.5 0 1 1-7 0 3.5 3.5 0 1 1 7 0z" fill="#c4c5c2"/><path d="M291.688-437.594a3.313 3.313 0 1 1-6.625 0 3.313 3.313 0 1 1 6.625 0z" transform="matrix(1.0566 0 0 1.0566 -31.198 24.863)" fill="url(#cm)"/><g transform="translate(-1)"><path d="M280.469-440.969c-3.58 0-6.469 2.92-6.469 6.5 0 2.37 1.35 4.338 3.25 5.469h6.469c1.9-1.131 3.25-3.13 3.25-5.5 0-3.58-2.92-6.469-6.5-6.469z" fill="#c4c5c2"/><path d="M280.5-441a6.502 6.502 0 0 0-6.5 6.5c0 2.376 1.345 4.366 3.25 5.5h6.5c1.905-1.134 3.25-3.124 3.25-5.5 0-3.588-2.912-6.5-6.5-6.5z" fill="url(#cn)"/></g><path transform="translate(9.83 -35.689) scale(.90566)" d="M291.688-437.594a3.313 3.313 0 1 1-6.625 0 3.313 3.313 0 1 1 6.625 0z" fill="url(#co)"/><path d="M292.956-437.334c-.001 2.685-3.269 3.714-3.269 3.714s2.349-1.626 2.337-3.705l.932-.009z" fill="#888a85" fill-rule="evenodd"/><g transform="matrix(1.14286 0 0 1.14286 -28.571 67)"><path d="M277-437.5a3.5 3.5 0 1 1-7 0 3.5 3.5 0 1 1 7 0z" fill="#c4c5c2"/><path d="M291.688-437.594a3.313 3.313 0 1 1-6.625 0 3.313 3.313 0 1 1 6.625 0z" transform="matrix(1.0566 0 0 1.0566 -31.198 24.863)" fill="url(#cp)"/></g></g><g opacity=".7" stroke-linecap="square"><path d="M24 2.5l-2.375 6.688a15.073 15.073 0 0 1 4.75 0L24 2.5zM8.812 8.781l3.032 6.438a15.224 15.224 0 0 1 3.375-3.375L8.813 8.78zm30.407 0l-6.438 3.063c1.29.935 2.44 2.085 3.375 3.375L39.22 8.78zM9.187 21.594L2.5 23.969l6.688 2.375a15.07 15.07 0 0 1 0-4.75zm29.626.031a15.073 15.073 0 0 1 0 4.75L45.5 24l-6.688-2.375zm-26.97 11.156l-3.03 6.407 6.406-3.032a15.224 15.224 0 0 1-3.375-3.375zm24.313 0a15.228 15.228 0 0 1-3.343 3.344l6.406 3.063-3.063-6.407zm-14.531 6.032L24 45.5l2.375-6.688a15.073 15.073 0 0 1-4.75 0z" fill="#fce94f" stroke="#fcaf3e" stroke-width=".737"/><path d="M24 5.25l-1.344 3.813C23.1 9.023 23.547 9 24 9c.453 0 .901.023 1.344.063L24 5.25zm-13.219 5.5l1.719 3.625a15.488 15.488 0 0 1 1.906-1.906l-3.625-1.719zm26.469 0l-3.625 1.719c.68.57 1.337 1.226 1.906 1.906l1.719-3.625zM9.062 22.625l-3.78 1.344 3.78 1.343C9.025 24.88 9 24.442 9 24c0-.464.021-.922.063-1.375zm29.876.031c.039.443.062.891.062 1.344 0 .453-.023.901-.063 1.344L42.72 24l-3.782-1.344zM35.53 33.594a15.582 15.582 0 0 1-1.906 1.937l3.625 1.719-1.719-3.656zm-23.031.031l-1.719 3.594 3.594-1.719a15.38 15.38 0 0 1-1.875-1.875zm10.156 5.313L24 42.718l1.344-3.78C24.9 38.977 24.453 39 24 39c-.453 0-.901-.023-1.344-.063z" fill="none" stroke="url(#cq)" stroke-width=".846"/></g><path transform="matrix(.77806 -1.06129 1.06129 .77806 67.48 3.641)" d="M-22.5-17.5a9.5 9.5 0 1 1-19 0 9.5 9.5 0 1 1 19 0z" fill="#ffee54" stroke="#fcaf3e" stroke-width=".76" stroke-linecap="square"/><path transform="matrix(1.24426 -.1677 .21664 1.25184 67.616 40.527)" d="M-22.5-17.5a9.5 9.5 0 1 1-19 0 9.5 9.5 0 1 1 19 0z" fill="url(#cr)"/><path transform="matrix(.7158 -.97635 .97635 .7158 64 5.27)" d="M-22.5-17.5a9.5 9.5 0 1 1-19 0 9.5 9.5 0 1 1 19 0z" fill="none" stroke="url(#cs)" stroke-width=".826" stroke-linecap="square"/><g transform="translate(-248.99 467.986)"><path d="M280.5-445.5c-2.27 0-4.11 1.55-4.719 3.625-.693-.364-1.444-.625-2.281-.625-2.76 0-5 2.24-5 5 0 .579.163 1.108.344 1.625-1.374.77-2.344 2.189-2.344 3.875 0 2.484 2.016 4.5 4.5 4.5h19c2.484 0 4.5-2.016 4.5-4.5 0-1.686-.97-3.104-2.344-3.875.181-.517.344-1.046.344-1.625 0-2.76-2.24-5-5-5-.837 0-1.588.261-2.281.625-.61-2.075-2.448-3.625-4.719-3.625z" fill="#c4c5c2" stroke="#888a85" stroke-miterlimit="2"/><path d="M280.5-445c-2.19 0-3.724 1.336-4.396 3.844-.668-.344-1.547-.834-2.354-.834-2.717 0-4.755 1.939-4.755 4.546 0 .546.267 1.333.442 1.822-1.325.728-2.437 1.89-2.437 3.372 0 2.346 1.546 4.25 4.34 4.25h18.32c2.772 0 4.34-1.904 4.34-4.25 0-1.592-1.112-2.666-2.437-3.394.175-.489.464-1.254.464-1.8 0-2.607-2.116-4.568-4.777-4.568-.807 0-1.642.49-2.31.833-.65-2.421-2.25-3.821-4.44-3.821z" fill="url(#ct)"/><path d="M284-440.5a3.5 3.5 0 1 1-7 0 3.5 3.5 0 1 1 7 0z" fill="#c4c5c2"/><path d="M291.688-437.594a3.313 3.313 0 1 1-6.625 0 3.313 3.313 0 1 1 6.625 0z" transform="matrix(1.0566 0 0 1.0566 -24.198 21.863)" fill="url(#cu)"/><path fill="#c4c5c2" d="M271-438h20v9h-20z"/><path d="M274-432a3 3 0 1 1-6 0 3 3 0 1 1 6 0zM291-437.5a3.5 3.5 0 1 1-7 0 3.5 3.5 0 1 1 7 0z" fill="#c4c5c2"/><path d="M291.688-437.594a3.313 3.313 0 1 1-6.625 0 3.313 3.313 0 1 1 6.625 0z" transform="matrix(1.0566 0 0 1.0566 -17.198 24.863)" fill="url(#cv)"/><path d="M277-437.5a3.5 3.5 0 1 1-7 0 3.5 3.5 0 1 1 7 0z" fill="#c4c5c2"/><path d="M291.688-437.594a3.313 3.313 0 1 1-6.625 0 3.313 3.313 0 1 1 6.625 0z" transform="matrix(1.0566 0 0 1.0566 -31.198 24.863)" fill="url(#cw)"/><g transform="translate(-1)"><path d="M280.469-440.969c-3.58 0-6.469 2.92-6.469 6.5 0 2.37 1.35 4.338 3.25 5.469h6.469c1.9-1.131 3.25-3.13 3.25-5.5 0-3.58-2.92-6.469-6.5-6.469z" fill="#c4c5c2"/><path d="M280.5-441a6.502 6.502 0 0 0-6.5 6.5c0 2.376 1.345 4.366 3.25 5.5h6.5c1.905-1.134 3.25-3.124 3.25-5.5 0-3.588-2.912-6.5-6.5-6.5z" fill="url(#cx)"/></g><path transform="translate(9.83 -35.689) scale(.90566)" d="M291.688-437.594a3.313 3.313 0 1 1-6.625 0 3.313 3.313 0 1 1 6.625 0z" fill="url(#cy)"/><path d="M292.956-437.334c-.001 2.685-3.269 3.714-3.269 3.714s2.349-1.626 2.337-3.705l.932-.009z" fill="#888a85" fill-rule="evenodd"/><g transform="matrix(1.14286 0 0 1.14286 -28.571 67)"><path d="M277-437.5a3.5 3.5 0 1 1-7 0 3.5 3.5 0 1 1 7 0z" fill="#c4c5c2"/><path d="M291.688-437.594a3.313 3.313 0 1 1-6.625 0 3.313 3.313 0 1 1 6.625 0z" transform="matrix(1.0566 0 0 1.0566 -31.198 24.863)" fill="url(#cz)"/></g></g></svg><svg width="48" height="48" viewBox="0 0 48 48" id="weather-few-clouds-night" x="48" y="48"><defs><linearGradient xlink:href="#da" id="du" gradientUnits="userSpaceOnUse" x1="284.802" y1="-441.233" x2="288.9" y2="-436.831"/><linearGradient xlink:href="#db" id="dt" gradientUnits="userSpaceOnUse" x1="286.666" y1="-439.484" x2="289.766" y2="-436.707"/><linearGradient xlink:href="#dc" id="ds" gradientUnits="userSpaceOnUse" x1="275.942" y1="-437.105" x2="279.975" y2="-431.918"/><linearGradient xlink:href="#da" id="dr" gradientUnits="userSpaceOnUse" x1="285.941" y1="-439.939" x2="289.391" y2="-436.443"/><linearGradient xlink:href="#dd" id="dq" gradientUnits="userSpaceOnUse" x1="286.512" y1="-441.291" x2="289.854" y2="-436.145"/><linearGradient xlink:href="#de" id="dp" gradientUnits="userSpaceOnUse" x1="287.517" y1="-439.753" x2="289.676" y2="-436.322"/><linearGradient xlink:href="#df" id="do" gradientUnits="userSpaceOnUse" x1="271.022" y1="-441.052" x2="285.029" y2="-431.97"/><linearGradient id="dg"><stop offset="0" stop-color="#787974"/><stop offset="1" stop-color="#787974" stop-opacity="0"/></linearGradient><radialGradient xlink:href="#dg" id="dv" gradientUnits="userSpaceOnUse" gradientTransform="matrix(.02129 0 0 .02759 323.367 -435.104)" cx="97.468" cy="-405.912" fx="97.468" fy="-405.912" r="358.446"/><linearGradient xlink:href="#da" id="dC" gradientUnits="userSpaceOnUse" x1="284.802" y1="-441.233" x2="288.9" y2="-436.831"/><linearGradient xlink:href="#db" id="dB" gradientUnits="userSpaceOnUse" x1="286.666" y1="-439.484" x2="289.766" y2="-436.707"/><linearGradient xlink:href="#dc" id="dA" gradientUnits="userSpaceOnUse" x1="275.942" y1="-437.105" x2="279.975" y2="-431.918"/><linearGradient xlink:href="#da" id="dz" gradientUnits="userSpaceOnUse" x1="285.941" y1="-439.939" x2="289.391" y2="-436.443"/><linearGradient xlink:href="#dd" id="dy" gradientUnits="userSpaceOnUse" x1="286.512" y1="-441.291" x2="289.854" y2="-436.145"/><linearGradient xlink:href="#de" id="dx" gradientUnits="userSpaceOnUse" x1="287.517" y1="-439.753" x2="289.676" y2="-436.322"/><linearGradient xlink:href="#df" id="dw" gradientUnits="userSpaceOnUse" x1="271.022" y1="-441.052" x2="285.029" y2="-431.97"/><linearGradient id="db"><stop offset="0" stop-color="#fff"/><stop offset="1" stop-color="#fff" stop-opacity="0"/></linearGradient><linearGradient id="dc"><stop offset="0" stop-color="#fff"/><stop offset="1" stop-color="#fff" stop-opacity="0"/></linearGradient><linearGradient id="da"><stop offset="0" stop-color="#fff"/><stop offset="1" stop-color="#fff" stop-opacity="0"/></linearGradient><linearGradient id="dd"><stop offset="0" stop-color="#fff"/><stop offset="1" stop-color="#fff" stop-opacity="0"/></linearGradient><linearGradient id="de"><stop offset="0" stop-color="#fff"/><stop offset="1" stop-color="#fff" stop-opacity="0"/></linearGradient><linearGradient id="df"><stop offset="0" stop-color="#fff"/><stop offset="1" stop-color="#fff" stop-opacity="0"/></linearGradient><linearGradient id="dj"><stop offset="0" stop-color="#fff"/><stop offset="1" stop-color="#fff" stop-opacity="0"/></linearGradient><linearGradient id="dh"><stop offset="0" stop-color="#fff"/><stop offset="1" stop-color="#fff" stop-opacity="0"/></linearGradient><linearGradient id="dn"><stop offset="0" stop-color="#edd400"/><stop offset="1" stop-color="#edd400" stop-opacity="0"/></linearGradient><linearGradient id="di"><stop offset="0" stop-color="#fcaf3e"/><stop offset="1" stop-color="#fcaf3e" stop-opacity="0"/></linearGradient><linearGradient id="dm"><stop offset="0" stop-color="#fce94f"/><stop offset="1" stop-color="#fce94f" stop-opacity="0"/></linearGradient><linearGradient id="dl"><stop offset="0" stop-color="#eeeeec"/><stop offset="1" stop-color="#eeeeec" stop-opacity="0"/></linearGradient><linearGradient id="dk"><stop offset="0" stop-color="#fff"/><stop offset="1" stop-color="#fff" stop-opacity="0"/></linearGradient></defs><g transform="translate(-264 459.975)"><path d="M280.5-445.5c-2.27 0-4.11 1.55-4.719 3.625-.693-.364-1.444-.625-2.281-.625-2.76 0-5 2.24-5 5 0 .579.163 1.108.344 1.625-1.374.77-2.344 2.189-2.344 3.875 0 2.484 2.016 4.5 4.5 4.5h19c2.484 0 4.5-2.016 4.5-4.5 0-1.686-.97-3.104-2.344-3.875.181-.517.344-1.046.344-1.625 0-2.76-2.24-5-5-5-.837 0-1.588.261-2.281.625-.61-2.075-2.448-3.625-4.719-3.625z" fill="#c4c5c2" stroke="#888a85" stroke-miterlimit="2"/><path d="M280.5-445c-2.19 0-3.724 1.336-4.396 3.844-.668-.344-1.547-.834-2.354-.834-2.717 0-4.755 1.939-4.755 4.546 0 .546.267 1.333.442 1.822-1.325.728-2.437 1.89-2.437 3.372 0 2.346 1.546 4.25 4.34 4.25h18.32c2.772 0 4.34-1.904 4.34-4.25 0-1.592-1.112-2.666-2.437-3.394.175-.489.464-1.254.464-1.8 0-2.607-2.116-4.568-4.777-4.568-.807 0-1.642.49-2.31.833-.65-2.421-2.25-3.821-4.44-3.821z" fill="url(#do)"/><path d="M284-440.5a3.5 3.5 0 1 1-7 0 3.5 3.5 0 1 1 7 0z" fill="#c4c5c2"/><path d="M291.688-437.594a3.313 3.313 0 1 1-6.625 0 3.313 3.313 0 1 1 6.625 0z" transform="matrix(1.0566 0 0 1.0566 -24.198 21.863)" fill="url(#dp)"/><path fill="#c4c5c2" d="M271-438h20v9h-20z"/><path d="M274-432a3 3 0 1 1-6 0 3 3 0 1 1 6 0zM291-437.5a3.5 3.5 0 1 1-7 0 3.5 3.5 0 1 1 7 0z" fill="#c4c5c2"/><path d="M291.688-437.594a3.313 3.313 0 1 1-6.625 0 3.313 3.313 0 1 1 6.625 0z" transform="matrix(1.0566 0 0 1.0566 -17.198 24.863)" fill="url(#dq)"/><path d="M277-437.5a3.5 3.5 0 1 1-7 0 3.5 3.5 0 1 1 7 0z" fill="#c4c5c2"/><path d="M291.688-437.594a3.313 3.313 0 1 1-6.625 0 3.313 3.313 0 1 1 6.625 0z" transform="matrix(1.0566 0 0 1.0566 -31.198 24.863)" fill="url(#dr)"/><g transform="translate(-1)"><path d="M280.469-440.969c-3.58 0-6.469 2.92-6.469 6.5 0 2.37 1.35 4.338 3.25 5.469h6.469c1.9-1.131 3.25-3.13 3.25-5.5 0-3.58-2.92-6.469-6.5-6.469z" fill="#c4c5c2"/><path d="M280.5-441a6.502 6.502 0 0 0-6.5 6.5c0 2.376 1.345 4.366 3.25 5.5h6.5c1.905-1.134 3.25-3.124 3.25-5.5 0-3.588-2.912-6.5-6.5-6.5z" fill="url(#ds)"/></g><path transform="translate(9.83 -35.689) scale(.90566)" d="M291.688-437.594a3.313 3.313 0 1 1-6.625 0 3.313 3.313 0 1 1 6.625 0z" fill="url(#dt)"/><path d="M292.956-437.334c-.001 2.685-3.269 3.714-3.269 3.714s2.349-1.626 2.337-3.705l.932-.009z" fill="#888a85" fill-rule="evenodd"/><g transform="matrix(1.14286 0 0 1.14286 -28.571 67)"><path d="M277-437.5a3.5 3.5 0 1 1-7 0 3.5 3.5 0 1 1 7 0z" fill="#c4c5c2"/><path d="M291.688-437.594a3.313 3.313 0 1 1-6.625 0 3.313 3.313 0 1 1 6.625 0z" transform="matrix(1.0566 0 0 1.0566 -31.198 24.863)" fill="url(#du)"/></g></g><g transform="matrix(.9987 0 0 .9987 -342.541 469.412)"><path d="M380.518-446.125a13.518 13.518 0 1 1-27.036 0 13.518 13.518 0 1 1 27.036 0z" fill="#eaece8"/><g transform="translate(37.125 -1.625)"><path d="M323.846-456.078c.049.176-.126.394-.28.599-.2.268-.31.447-.079.678.143.143.579.016.718-.04.322-.129.674-.23.998-.36.246-.097.43-.136.678-.199.287-.071.572.057.679.2.068.09-.462.49-.52.519a3.493 3.493 0 0 1-.717.279c-.302.075-.572.178-.878.24a2.298 2.298 0 0 0-.798.319c-.34.204-.626.506-.918.798-.273.272-.367.567-.28.917.085.338.21.457.52.52.343.068.51-.096.678-.32.218-.291.301-.66.558-.918.215-.215.362-.421.599-.598.24-.18.42-.274.718-.2.247.062.449.305.718.36.228.045.562-.262.759-.36.042-.021.08-.053.12-.08.207-.138.55-.08.797-.08.27 0 .496.129.719.24.268.134.5.126.758.32.272.204.419.358.558.638.132.264.19.43.4.638.22.22.56.36.798.599.142.143.232.531.279.718.073.293.14.599 0 .878-.151.302-.332.584-.479.878-.145.289-.55.531-.798.718-.343.257-.751.272-1.077.598-.376.376-.411.596-.759 1.118-.257.385.05.556.36.479l.957-.24.16-.04c.4-.1.718-.419 1.117-.518.497-.125 1.543.646 1.995.917.357.214-.069.633-.24.719-.316.158-.632.2-.997.2-.236 0-.492-.075-.718-.12-.305-.062-.518-.061-.758.12-.267.2-.236.457-.08.717.156.26.41.444.479.719.086.346-.194.53-.44.678-.246.148-.671-.04-.957-.04-.361 0-.711.185-.997.4-.13.096-.243.612-.28.757l-.04.16c-.097.389.028.587.16.918.096.239.328.456.439.678.138.277.23.46.08.758-.128.255-.176.463-.24.719-.044.179.208.658.28.837.144.361.01.43-.24.679-.22.22-.551.276-.798.399-.229.114-.68-.02-.918-.08-.267-.067-.515.058-.718.16-.322.16-.321.316-.559 0-.251-.336-.46-.686-.558-1.078l-.04-.16c-.067-.267-.04-.595-.04-.877 0-.288.08-.545.08-.838 0-.316-.755.278-.958.359-.094.038-.186.08-.28.12-.398.17-.358.535-.358.878 0 .341.2.602.2.957 0 .343-.404.44-.68.44-.39 0-.571-.453-.837-.72-.254-.253-.688-.537-.838-.837-.212-.424-.284-.665.16-.998.254-.19.608-.226.798-.478.199-.266.481-.638 0-.759-.329-.082-.456-.196-.838-.12l-.2.04c-.66.132-.655.072-1.277-.239-.447-.224-.6-.561-.918-.878-.295-.295-.462-.692-.558-1.077-.089-.355-.194-.695-.28-1.038-.07-.28-.08-.625-.08-.917 0-.298-.08-.614-.08-.918v-.998c0-.336.04-.634.04-.958 0-.277.055-.616.12-.877.007-.026 0-.054 0-.08 0-.34.197-.692.32-.998.107-.269.274-.55.399-.798.13-.26.26-.48.439-.718.192-.256.396-.516.598-.758a9.562 9.562 0 0 1 1.117-1.158c.24-.204.357-.546.639-.758.349-.261.652-.539.998-.798a2.54 2.54 0 0 0 .678-.718c.143-.24.224-.464.439-.678.052-.053.23-.135.28-.16z" opacity=".106" fill="#787974" fill-rule="evenodd"/><path d="M334.86-450.97c-.385.092-1.153.224-1.676.12-.401-.08-.415-.305-.798.08l-.08.079c-.243.242-.28.279-.28.638 0 .237.004.462-.04.679-.046.233-.011.592.04.798.079.314.128.535.28.838.12.242.177.432.399.598.288.216.684.274.997.4.221.088.591.04.838.04.314 0 .36.035.36.398 0 .312-.586.75-.759 1.038-.19.318-.118.564 0 .918.088.263.145.524.2.798.057.285.131.49.359.718.242.242.689-.026.918.28.115.153.12.407.12.598 0 .317.102.467.398.32.27-.136.473-.126.679-.4.196-.261.294-.588.439-.878.129-.258.35-.28.638-.28.267 0 .481.07.758 0 .407-.1.469-.228.759-.518.366-.367.323-.622.399-1.077.034-.206-.034-.455-.08-.639l-.04-.16c-.056-.222-.544-.239-.718-.239-.386 0-.958-.19-1.317-.28-.184-.045-.692-.651-.838-.797-.211-.211-.253-.371-.32-.639-.082-.329-.038-.672-.12-.997-.092-.373.017-.583-.278-.878a1.53 1.53 0 0 1-.4-.758c-.05-.253-.287-.535-.478-.679-.14-.105-.157-.079-.36-.12z" opacity=".189" fill="#787974" fill-rule="evenodd"/><path d="M341.005-448.656c-.207.007-.419.259-.599.439-.177.177-.12.48-.12.718 0 .26.056.544.12.798.054.216.253.493.4.639.22.22.501.35.797.399.388.065.602.111.758-.28.108-.268.16-.453.16-.758 0-.276-.012-.488-.08-.758-.081-.326-.186-.492-.479-.638-.207-.104-.418-.344-.598-.48-.104-.077-.236-.079-.36-.079z" opacity=".183" fill="#787974" fill-rule="evenodd"/><path d="M328.355-436.206c.217-.148.846-.794 1.277-1.117.083-.063.16-.133.24-.2.43-.358.805-.928 1.117-1.396.495-.744.713-1.411.878-2.235.21-1.046.262-.348.04.32-.035.103-.054.212-.08.318-.11.437-.152.9-.32 1.317-.225.564-.65 1.049-.797 1.636-.079.314-.185.697-.12.958.078.312.533-.377.838-.479.415-.138.519-.229.519.24 0 .283-.143.673-.2.957-.098.49 1.288.077 1.596 0 1.008-.252 1.698-.597 2.514-1.277.898-.748 1.646-1.565 2.474-2.394.667-.667.98-1.085.559.04l-.12.32-.12.318c-.22.59-.623 1.241-1.157 1.597-.83.554-1.37 1.582-2.274 2.035-.367.183-.75.255-1.118.439-.37.184.719.315.918.359 2.003.445-1.621.638-2.075.638-.748 0-1.123-.156-1.716.2-.202.121.944.587.998.598.467.094.885.4 1.397.4.85 0-1.773.264-2.514.08-.622-.156-1.21-.283-1.836-.44-.318-.08-.636-.03-.918.04-.056.014.04.824.04.918 0 .59-.155 1.052-.439.2-.153-.46-.439-.945-.439-1.437 0-.312-.411.469-.598.718-.264.351-.782.854-.878.878-.013.003.258-.554.359-.958.076-.303.566-1.115.24-1.197-.306-.076-.726-.017-1.038-.08-.464-.092-.96-.18-1.397-.399-.844-.422-2.163-.81-3.072-1.037-.084-.021-1.456-1.496-.16-.2.856.856 2.19 1.437 3.392 1.437.385 0 .956-.15 1.317-.24.217-.054.516-.382.758-.478.262-.105-.418-.382-.599-.599l-.2-.24c-.715-.858-.966-2.043-1.795-2.872-.133-.134-2.078-2.404-1.157-1.636.952.793 1.832 1.498 2.634 2.434.41.48.764 1.105 1.157 1.596.395.493.311-.103.2-.44-.24-.72-.12-1.72-.12-2.473 0-.998.515 1.024.558 1.197.124.496.38 1.142.758.638.39-.52.44-.618.44.04v.16c0 .248-.014.533.04.798z" opacity=".472" fill="#f3f4f2" fill-rule="evenodd"/><path d="M340.047-444.985c.08.085.16.377.16.639 0 .106-.66.62-.759.718-.191.192-.23.515-.279.758-.063.313-.141.53-.08.838.052.26.16.52.28.758.143.287.35.431.598.679.276.275.616.273.958.359.435.108-.258.523-.36.598-.267.201-.528.26-.678.559-.172.346.185.473.4.559.241.096.606-.33.718-.48.15-.2.399-.426.399-.678 0-.247.12-.508.12-.798 0-.27.06-.564.12-.798.088-.355.216-.496.438-.718.179-.179.174-.62.12-.838-.063-.25-.22-.477-.28-.718-.061-.246-.362-.39-.558-.44-.236-.058-.568-.487-.718-.638-.208-.207-.3-.359-.599-.359z" opacity=".117" fill="#787974" fill-rule="evenodd"/><path d="M322.689-446.022c-.01-.01.026 0 0 0z" fill="none" stroke="#000" stroke-width="1.001"/><path d="M327.597-455.679c.172-.043.572-.173.838-.24.34-.084.697.12 1.038.12.034 0 .255.44.638.44h.16c.241 0 .511.192.678.358.16.161.014.545-.08.639-.254.254-.481.077-.678-.12-.21-.21-.321-.29-.599-.359-.275-.069-.57-.027-.838.04-.327.082-.542.16-.918.16-.125 0-.512-.546-.558-.639-.082-.164.219-.374.32-.399z" opacity=".2" fill="#938f8b" fill-rule="evenodd"/><path d="M332.425-455c.198.05.64.039.958-.04.352-.088.908-.133 1.277-.04.223.055 1.587.323.958.638-.312.156-.642.193-.918.36-.333.199.402.278.559.278.424 0 .18.511.08.679-.158.261-.051.666 0 .918.056.285.547.24.797.24.344 0 .632.044.838.318.183.243.435.488.32.719-.12.237-.722.279-.918.279-.152 0-.75-.763-.838-.838-.23-.198-.5-.015-.718.04-.39.097-.676-.397-.918-.599-.262-.218-.425-.53-.559-.798-.169-.338.104-.479-.399-.479-.312 0-.483-.063-.718-.24-.32-.239-.559-.146-.559-.598 0-.398.022-.515.36-.718.108-.065.253-.033.398-.12z" opacity=".289" fill="#938f8b" fill-rule="evenodd"/><path d="M323.877-456.19c.048.176-.126.394-.28.599-.201.268-.31.447-.08.678.144.143.58.016.719-.04.321-.128.673-.23.997-.359.246-.098.43-.137.679-.2.287-.071.571.058.678.2.068.09-.462.49-.519.519a3.493 3.493 0 0 1-.718.28c-.302.075-.571.177-.878.239a2.298 2.298 0 0 0-.798.319c-.34.204-.626.506-.918.798-.272.272-.367.567-.279.918.084.337.21.457.519.518.343.07.51-.095.678-.319.218-.29.302-.66.559-.918.215-.215.362-.42.598-.598.24-.18.421-.274.719-.2.247.062.448.306.718.36.227.045.562-.261.758-.36.043-.021.08-.053.12-.08.207-.138.55-.08.798-.08.269 0 .496.13.718.24.269.134.5.126.758.32.273.204.42.358.559.638.132.264.19.43.399.638.22.221.56.361.798.599.143.143.233.531.28.718.073.293.139.6 0 .878-.151.302-.332.584-.48.878-.144.29-.549.531-.798.718-.343.257-.75.272-1.077.599-.375.375-.41.596-.758 1.117-.257.385.049.556.36.479l.957-.24.16-.04c.4-.1.717-.418 1.117-.518.497-.125 1.543.646 1.995.918.357.214-.07.633-.24.718-.316.158-.633.2-.997.2-.236 0-.493-.075-.718-.12-.306-.061-.518-.061-.759.12-.267.2-.236.457-.08.718.157.26.41.443.48.718.086.346-.194.53-.44.678-.246.148-.672-.04-.957-.04-.362 0-.712.185-.998.4-.13.097-.243.613-.28.758l-.039.16c-.097.388.027.586.16.917.095.24.328.456.439.678.138.277.229.46.08.758-.128.255-.176.463-.24.719-.045.179.207.658.28.838.143.36.01.429-.24.678-.221.22-.552.276-.798.4-.23.114-.681-.022-.918-.08-.267-.067-.515.057-.718.159-.322.161-.321.317-.559 0-.252-.336-.46-.686-.559-1.078l-.04-.16c-.066-.267-.04-.595-.04-.877 0-.288.08-.545.08-.838 0-.316-.754.278-.957.36-.094.037-.187.079-.28.119-.398.17-.359.535-.359.878 0 .341.2.602.2.957 0 .343-.404.44-.679.44-.39 0-.572-.453-.838-.719-.254-.254-.688-.538-.838-.838-.212-.424-.283-.665.16-.997.254-.191.608-.226.798-.48.2-.265.482-.637 0-.757-.328-.083-.455-.197-.838-.12l-.2.04c-.659.132-.654.071-1.276-.24-.448-.224-.601-.56-.918-.878-.295-.295-.462-.692-.559-1.077-.088-.355-.193-.695-.279-1.037-.07-.281-.08-.626-.08-.918 0-.297-.08-.614-.08-.918v-.998c0-.336.04-.634.04-.957 0-.278.054-.616.12-.878.006-.026 0-.053 0-.08 0-.34.197-.692.32-.998.107-.269.274-.549.398-.798.13-.26.261-.48.44-.718.191-.256.396-.516.598-.758a9.561 9.561 0 0 1 1.117-1.157c.239-.205.357-.547.638-.759.35-.261.653-.539.998-.798a2.54 2.54 0 0 0 .678-.718c.144-.24.225-.464.44-.678.052-.053.23-.135.279-.16z" opacity=".178" fill="url(#dv)" fill-rule="evenodd"/><path d="M327.597-443.947a.678.678 0 1 1-1.357 0 .678.678 0 1 1 1.357 0z" opacity=".617" fill="#fff"/><path d="M321.093-449.334a.36.36 0 1 1-.718 0 .36.36 0 1 1 .718 0z" opacity=".544" fill="#fff"/><path d="M337.374-444.705a.678.678 0 1 1-1.357 0 .678.678 0 1 1 1.357 0z" opacity=".544" fill="#c2c3be"/><path d="M332.266-434.49a.678.678 0 1 1-1.357 0 .678.678 0 1 1 1.357 0z" opacity=".567" fill="#c2c3be"/><path d="M336.496-444.546a.439.439 0 1 1-.878 0 .439.439 0 1 1 .878 0zM328.196-434.011a.36.36 0 1 1-.719 0 .36.36 0 1 1 .719 0zM334.82-438.64a.439.439 0 1 1-.878 0 .439.439 0 1 1 .878 0zM340.007-450.053a.439.439 0 1 1-.878 0 .439.439 0 1 1 .878 0zM336.974-449.254a.439.439 0 1 1-.877 0 .439.439 0 1 1 .877 0zM338.172-453.724a.439.439 0 1 1-.878 0 .439.439 0 1 1 .878 0zM329.313-440.476a.439.439 0 1 1-.878 0 .439.439 0 1 1 .878 0z" opacity=".617" fill="#fff"/><path d="M328.314-435.943c.2-.136.783-.727 1.183-1.023.077-.057.148-.121.222-.182.399-.328.746-.85 1.036-1.279.459-.68.66-1.291.813-2.045.194-.958.243-.318.037.292-.032.095-.049.195-.074.292-.1.4-.14.823-.295 1.206-.21.516-.604.96-.74 1.497-.073.287-.172.638-.111.877.072.285.494-.345.777-.439.385-.126.48-.21.48.22 0 .259-.132.616-.185.876-.09.448 1.194.07 1.48 0 .934-.23 1.574-.546 2.33-1.169.833-.685 1.525-1.433 2.293-2.191.618-.61.909-.993.518.036l-.11.293-.112.292c-.205.539-.578 1.135-1.072 1.46-.77.508-1.27 1.45-2.109 1.864-.34.167-.694.233-1.035.401-.343.17.666.289.85.33 1.857.407-1.502.583-1.923.583-.694 0-1.04-.143-1.59.183-.188.111.874.538.924.548.434.086.82.365 1.295.365.788 0-1.643.243-2.33.073-.576-.142-1.122-.258-1.702-.401-.294-.073-.59-.028-.85.036-.052.013.037.754.037.84 0 .541-.144.963-.407.183-.142-.42-.407-.865-.407-1.315 0-.285-.382.43-.555.657-.244.322-.725.782-.814.804-.012.003.24-.507.333-.877.07-.277.525-1.02.222-1.096-.282-.07-.672-.015-.961-.073-.43-.084-.89-.165-1.295-.365-.783-.386-2.005-.741-2.848-.95-.078-.019-1.349-1.368-.148-.182.793.783 2.03 1.315 3.144 1.315.357 0 .887-.137 1.22-.22.202-.049.48-.35.703-.438.243-.096-.387-.35-.555-.548l-.184-.219c-.663-.785-.896-1.87-1.665-2.63-.123-.122-1.926-2.2-1.072-1.497.882.726 1.697 1.372 2.44 2.228.382.44.71 1.012 1.073 1.461.366.452.289-.094.185-.402-.222-.66-.11-1.576-.11-2.264 0-.914.477.937.517 1.095.115.454.353 1.046.703.585.362-.476.407-.567.407.036v.146c0 .227-.013.488.037.731z" fill="#fff" fill-rule="evenodd"/><g transform="translate(461.697 -517.207)" opacity=".317" fill="#a3a4a0"><path d="M-125.865 68.418a1.768 1.68 0 1 1-3.536 0 1.768 1.68 0 1 1 3.536 0zM-123.92 72.395a1.768 1.68 0 1 1-3.536 0 1.768 1.68 0 1 1 3.536 0z"/><path d="M-121.976 72.338a1.15 1.092 0 1 1-2.298 0 1.15 1.092 0 1 1 2.298 0zM-131.787 66.836a2.74 2.603 0 1 1-5.48 0 2.74 2.603 0 1 1 5.48 0zM-137.09 72.992a3.182 3.023 0 1 1-6.364 0 3.182 3.023 0 1 1 6.364 0z"/><path d="M-133.643 75.79a2.475 2.351 0 1 1-4.95 0 2.475 2.351 0 1 1 4.95 0zM-135.234 69.213a2.475 2.351 0 1 1-4.95 0 2.475 2.351 0 1 1 4.95 0z"/></g><path d="M329.07-434.735a.663.663 0 1 1-1.325 0 .663.663 0 1 1 1.325 0z" fill="#fff"/></g><path d="M380.537-446.018a13.518 13.518 0 1 1-27.037 0 13.518 13.518 0 1 1 27.037 0z" fill="none" stroke="#888a85" stroke-width="1.0010457799999999"/><path transform="matrix(.77807 -1.0613 1.0613 .77807 410.472 -466.346)" d="M-22.5-17.5a9.5 9.5 0 1 1-19 0 9.5 9.5 0 1 1 19 0z" fill="none" stroke="#fff" stroke-width=".761" stroke-linecap="square"/></g><g transform="translate(-249 467.875)"><path d="M280.5-445.5c-2.27 0-4.11 1.55-4.719 3.625-.693-.364-1.444-.625-2.281-.625-2.76 0-5 2.24-5 5 0 .579.163 1.108.344 1.625-1.374.77-2.344 2.189-2.344 3.875 0 2.484 2.016 4.5 4.5 4.5h19c2.484 0 4.5-2.016 4.5-4.5 0-1.686-.97-3.104-2.344-3.875.181-.517.344-1.046.344-1.625 0-2.76-2.24-5-5-5-.837 0-1.588.261-2.281.625-.61-2.075-2.448-3.625-4.719-3.625z" fill="#c4c5c2" stroke="#888a85" stroke-miterlimit="2"/><path d="M280.5-445c-2.19 0-3.724 1.336-4.396 3.844-.668-.344-1.547-.834-2.354-.834-2.717 0-4.755 1.939-4.755 4.546 0 .546.267 1.333.442 1.822-1.325.728-2.437 1.89-2.437 3.372 0 2.346 1.546 4.25 4.34 4.25h18.32c2.772 0 4.34-1.904 4.34-4.25 0-1.592-1.112-2.666-2.437-3.394.175-.489.464-1.254.464-1.8 0-2.607-2.116-4.568-4.777-4.568-.807 0-1.642.49-2.31.833-.65-2.421-2.25-3.821-4.44-3.821z" fill="url(#dw)"/><path d="M284-440.5a3.5 3.5 0 1 1-7 0 3.5 3.5 0 1 1 7 0z" fill="#c4c5c2"/><path d="M291.688-437.594a3.313 3.313 0 1 1-6.625 0 3.313 3.313 0 1 1 6.625 0z" transform="matrix(1.0566 0 0 1.0566 -24.198 21.863)" fill="url(#dx)"/><path fill="#c4c5c2" d="M271-438h20v9h-20z"/><path d="M274-432a3 3 0 1 1-6 0 3 3 0 1 1 6 0zM291-437.5a3.5 3.5 0 1 1-7 0 3.5 3.5 0 1 1 7 0z" fill="#c4c5c2"/><path d="M291.688-437.594a3.313 3.313 0 1 1-6.625 0 3.313 3.313 0 1 1 6.625 0z" transform="matrix(1.0566 0 0 1.0566 -17.198 24.863)" fill="url(#dy)"/><path d="M277-437.5a3.5 3.5 0 1 1-7 0 3.5 3.5 0 1 1 7 0z" fill="#c4c5c2"/><path d="M291.688-437.594a3.313 3.313 0 1 1-6.625 0 3.313 3.313 0 1 1 6.625 0z" transform="matrix(1.0566 0 0 1.0566 -31.198 24.863)" fill="url(#dz)"/><g transform="translate(-1)"><path d="M280.469-440.969c-3.58 0-6.469 2.92-6.469 6.5 0 2.37 1.35 4.338 3.25 5.469h6.469c1.9-1.131 3.25-3.13 3.25-5.5 0-3.58-2.92-6.469-6.5-6.469z" fill="#c4c5c2"/><path d="M280.5-441a6.502 6.502 0 0 0-6.5 6.5c0 2.376 1.345 4.366 3.25 5.5h6.5c1.905-1.134 3.25-3.124 3.25-5.5 0-3.588-2.912-6.5-6.5-6.5z" fill="url(#dA)"/></g><path transform="translate(9.83 -35.689) scale(.90566)" d="M291.688-437.594a3.313 3.313 0 1 1-6.625 0 3.313 3.313 0 1 1 6.625 0z" fill="url(#dB)"/><path d="M292.956-437.334c-.001 2.685-3.269 3.714-3.269 3.714s2.349-1.626 2.337-3.705l.932-.009z" fill="#888a85" fill-rule="evenodd"/><g transform="matrix(1.14286 0 0 1.14286 -28.571 67)"><path d="M277-437.5a3.5 3.5 0 1 1-7 0 3.5 3.5 0 1 1 7 0z" fill="#c4c5c2"/><path d="M291.688-437.594a3.313 3.313 0 1 1-6.625 0 3.313 3.313 0 1 1 6.625 0z" transform="matrix(1.0566 0 0 1.0566 -31.198 24.863)" fill="url(#dC)"/></g></g></svg><svg width="48" height="48" viewBox="0 0 48 48" id="weather-overcast" x="96"><defs><linearGradient xlink:href="#ea" id="eO" gradientUnits="userSpaceOnUse" x1="284.802" y1="-441.233" x2="288.9" y2="-436.831"/><linearGradient xlink:href="#eb" id="eN" gradientUnits="userSpaceOnUse" x1="286.666" y1="-439.484" x2="289.766" y2="-436.707"/><linearGradient xlink:href="#ec" id="eM" gradientUnits="userSpaceOnUse" x1="275.942" y1="-437.105" x2="279.975" y2="-431.918"/><linearGradient xlink:href="#ea" id="eL" gradientUnits="userSpaceOnUse" x1="285.941" y1="-439.939" x2="289.391" y2="-436.443"/><linearGradient xlink:href="#ed" id="eK" gradientUnits="userSpaceOnUse" x1="286.512" y1="-441.291" x2="289.854" y2="-436.145"/><linearGradient xlink:href="#ee" id="eJ" gradientUnits="userSpaceOnUse" x1="287.517" y1="-439.753" x2="289.676" y2="-436.322"/><linearGradient xlink:href="#ef" id="eI" gradientUnits="userSpaceOnUse" x1="271.022" y1="-441.052" x2="285.029" y2="-431.97"/><linearGradient xlink:href="#ea" id="eH" gradientUnits="userSpaceOnUse" x1="284.802" y1="-441.233" x2="288.9" y2="-436.831"/><linearGradient id="eb"><stop offset="0" stop-color="#fff"/><stop offset="1" stop-color="#fff" stop-opacity="0"/></linearGradient><linearGradient xlink:href="#eb" id="eG" gradientUnits="userSpaceOnUse" x1="286.666" y1="-439.484" x2="289.766" y2="-436.707"/><linearGradient id="ec"><stop offset="0" stop-color="#fff"/><stop offset="1" stop-color="#fff" stop-opacity="0"/></linearGradient><linearGradient xlink:href="#ec" id="eF" gradientUnits="userSpaceOnUse" x1="275.942" y1="-437.105" x2="279.975" y2="-431.918"/><linearGradient id="ea"><stop offset="0" stop-color="#fff"/><stop offset="1" stop-color="#fff" stop-opacity="0"/></linearGradient><linearGradient xlink:href="#ea" id="eE" gradientUnits="userSpaceOnUse" x1="285.941" y1="-439.939" x2="289.391" y2="-436.443"/><linearGradient id="ed"><stop offset="0" stop-color="#fff"/><stop offset="1" stop-color="#fff" stop-opacity="0"/></linearGradient><linearGradient xlink:href="#ed" id="eD" gradientUnits="userSpaceOnUse" x1="286.512" y1="-441.291" x2="289.854" y2="-436.145"/><linearGradient id="ee"><stop offset="0" stop-color="#fff"/><stop offset="1" stop-color="#fff" stop-opacity="0"/></linearGradient><linearGradient xlink:href="#ee" id="eC" gradientUnits="userSpaceOnUse" x1="287.517" y1="-439.753" x2="289.676" y2="-436.322"/><linearGradient id="ef"><stop offset="0" stop-color="#fff"/><stop offset="1" stop-color="#fff" stop-opacity="0"/></linearGradient><linearGradient xlink:href="#ef" id="eB" gradientUnits="userSpaceOnUse" x1="271.022" y1="-441.052" x2="285.029" y2="-431.97"/><linearGradient id="eg"><stop offset="0" stop-color="#fff"/><stop offset="1" stop-color="#fff" stop-opacity="0"/></linearGradient><linearGradient xlink:href="#eg" id="eA" gradientUnits="userSpaceOnUse" x1="-156.29" y1="-100.534" x2="-153.098" y2="-96.545"/><linearGradient id="eh"><stop offset="0" stop-color="#fff"/><stop offset="1" stop-color="#fff" stop-opacity="0"/></linearGradient><linearGradient xlink:href="#eh" id="ez" gradientUnits="userSpaceOnUse" x1="238.005" y1="-388.475" x2="245.655" y2="-382.645"/><linearGradient id="ei"><stop offset="0" stop-color="#fff"/><stop offset="1" stop-color="#fff" stop-opacity="0"/></linearGradient><linearGradient xlink:href="#ei" id="ey" gradientUnits="userSpaceOnUse" x1="230.876" y1="-390.44" x2="235.257" y2="-386.959"/><linearGradient id="ej"><stop offset="0" stop-color="#fff"/><stop offset="1" stop-color="#fff" stop-opacity="0"/></linearGradient><linearGradient xlink:href="#ej" id="ex" gradientUnits="userSpaceOnUse" x1="246.74" y1="-391.314" x2="252.698" y2="-385.352"/><linearGradient id="ek"><stop offset="0" stop-color="#fff"/><stop offset="1" stop-color="#fff" stop-opacity="0"/></linearGradient><linearGradient xlink:href="#ek" id="ew" gradientUnits="userSpaceOnUse" x1="240.074" y1="-393.407" x2="245.827" y2="-388.55"/><linearGradient id="el"><stop offset="0" stop-color="#fff"/><stop offset="1" stop-color="#fff" stop-opacity="0"/></linearGradient><linearGradient xlink:href="#el" id="ev" gradientUnits="userSpaceOnUse" gradientTransform="translate(69.003 102)" x1="228.503" y1="-392.306" x2="278.915" y2="-375.38"/><linearGradient id="eu"><stop offset="0" stop-color="#fff"/><stop offset="1" stop-color="#fff" stop-opacity="0"/></linearGradient><linearGradient id="et"><stop offset="0" stop-color="#fff"/><stop offset="1" stop-color="#fff" stop-opacity="0"/></linearGradient><linearGradient id="eo"><stop offset="0" stop-color="#fff"/><stop offset="1" stop-color="#fff" stop-opacity="0"/></linearGradient><linearGradient id="em"><stop offset="0" stop-color="#fff"/><stop offset="1" stop-color="#fff" stop-opacity="0"/></linearGradient><linearGradient id="es"><stop offset="0" stop-color="#edd400"/><stop offset="1" stop-color="#edd400" stop-opacity="0"/></linearGradient><linearGradient id="en"><stop offset="0" stop-color="#fcaf3e"/><stop offset="1" stop-color="#fcaf3e" stop-opacity="0"/></linearGradient><linearGradient id="er"><stop offset="0" stop-color="#fce94f"/><stop offset="1" stop-color="#fce94f" stop-opacity="0"/></linearGradient><linearGradient id="eq"><stop offset="0" stop-color="#eeeeec"/><stop offset="1" stop-color="#eeeeec" stop-opacity="0"/></linearGradient><linearGradient id="ep"><stop offset="0" stop-color="#fff"/><stop offset="1" stop-color="#fff" stop-opacity="0"/></linearGradient></defs><g transform="translate(-287 298)"><path d="M311.503-296c-2.773 0-5.109 1.574-6.407 3.813-.944-.476-1.965-.813-3.093-.813-3.864 0-7 3.136-7 7s3.136 7 7 7c2.42 0 4.43-1.32 5.687-3.188 1.134.69 2.39 1.188 3.813 1.188.913 0 1.753-.232 2.562-.531.51.867 1.18 1.58 2 2.156-.007.13-.062.243-.062.375 0 3.864 3.136 7 7 7s7-3.136 7-7c0-2.37-1.26-4.358-3.063-5.625.007-.13.063-.243.063-.375 0-3.864-3.136-7-7-7-.623 0-1.176.222-1.75.375-1.195-2.559-3.742-4.375-6.75-4.375z" fill="#888a85"/><path d="M311.503-295c-2.78 0-5.135 1.762-6.063 4.219-.985-.71-2.131-1.219-3.437-1.219-3.312 0-6 2.688-6 6s2.688 6 6 6c2.427 0 4.493-1.456 5.437-3.531 1.12.917 2.502 1.531 4.063 1.531 1.074 0 2.044-.319 2.937-.781.398 1 1.101 1.786 1.938 2.437-.18.596-.375 1.19-.375 1.844 0 3.588 2.912 6.5 6.5 6.5s6.5-2.912 6.5-6.5c0-2.36-1.335-4.33-3.22-5.469.063-.347.22-.666.22-1.031a6.002 6.002 0 0 0-8.407-5.5c-.853-2.594-3.215-4.5-6.093-4.5z" fill="url(#ev)"/><path d="M329.003-278.5a6.5 6.5 0 1 1-13 0 6.5 6.5 0 1 1 13 0z" fill="#c4c5c2"/><g transform="translate(69.003 102)"><path d="M248-390.5a5.5 5.5 0 1 1-11 0 5.5 5.5 0 1 1 11 0z" fill="#c4c5c2"/><path d="M250.183-389.301a6.231 6.231 0 1 1-12.463 0 6.231 6.231 0 1 1 12.463 0z" transform="translate(27.18 -46.89) scale(.88263)" fill="url(#ew)"/></g><g transform="translate(69.003 102)"><path d="M256-386.5a5.5 5.5 0 1 1-11 0 5.5 5.5 0 1 1 11 0z" fill="#c4c5c2"/><path d="M257.254-385.788a6.033 6.033 0 1 1-12.065 0 6.033 6.033 0 1 1 12.065 0z" transform="matrix(.91173 0 0 .91173 21.454 -34.766)" fill="url(#ex)"/></g><g transform="translate(69.003 102)"><path d="M238-388a5 5 0 1 1-10 0 5 5 0 1 1 10 0z" fill="#c4c5c2"/><path d="M237.809-387.887a4.375 4.375 0 1 1-8.75 0 4.375 4.375 0 1 1 8.75 0z" transform="matrix(1.1428 0 0 1.1428 -33.768 55.277)" fill="url(#ey)"/></g><g transform="translate(69.003 102)"><path d="M249-384a7 7 0 1 1-14 0 7 7 0 1 1 14 0z" fill="#c4c5c2"/><path d="M248.548-383.667a6.74 6.74 0 1 1-13.48 0 6.74 6.74 0 1 1 13.48 0z" transform="matrix(1.03864 0 0 1.03864 -9.15 14.49)" fill="url(#ez)"/></g><g transform="matrix(.93503 0 0 .93503 446.828 -187.616)"><path d="M-153.195-98.375a5.43 5.43 0 1 1-10.86 0 5.43 5.43 0 1 1 10.86 0z" fill="#c4c5c2"/><path d="M-151.938-96.938a3.125 3.125 0 1 1-6.25 0 3.125 3.125 0 1 1 6.25 0z" transform="matrix(1.73773 0 0 1.73773 110.895 70.014)" fill="url(#eA)"/></g><g transform="translate(38.003 162)"><path d="M280.5-445.5c-2.27 0-4.11 1.55-4.719 3.625-.693-.364-1.444-.625-2.281-.625-2.76 0-5 2.24-5 5 0 .579.163 1.108.344 1.625-1.374.77-2.344 2.189-2.344 3.875 0 2.484 2.016 4.5 4.5 4.5h19c2.484 0 4.5-2.016 4.5-4.5 0-1.686-.97-3.104-2.344-3.875.181-.517.344-1.046.344-1.625 0-2.76-2.24-5-5-5-.837 0-1.588.261-2.281.625-.61-2.075-2.448-3.625-4.719-3.625z" fill="#c4c5c2" stroke="#888a85" stroke-miterlimit="2"/><path d="M280.5-445c-2.19 0-3.724 1.336-4.396 3.844-.668-.344-1.547-.834-2.354-.834-2.717 0-4.755 1.939-4.755 4.546 0 .546.267 1.333.442 1.822-1.325.728-2.437 1.89-2.437 3.372 0 2.346 1.546 4.25 4.34 4.25h18.32c2.772 0 4.34-1.904 4.34-4.25 0-1.592-1.112-2.666-2.437-3.394.175-.489.464-1.254.464-1.8 0-2.607-2.116-4.568-4.777-4.568-.807 0-1.642.49-2.31.833-.65-2.421-2.25-3.821-4.44-3.821z" fill="url(#eB)"/><path d="M284-440.5a3.5 3.5 0 1 1-7 0 3.5 3.5 0 1 1 7 0z" fill="#c4c5c2"/><path transform="matrix(1.0566 0 0 1.0566 -24.198 21.863)" d="M291.688-437.594a3.313 3.313 0 1 1-6.625 0 3.313 3.313 0 1 1 6.625 0z" fill="url(#eC)"/><path fill="#c4c5c2" d="M271-438h20v9h-20z"/><path d="M274-432a3 3 0 1 1-6 0 3 3 0 1 1 6 0zM291-437.5a3.5 3.5 0 1 1-7 0 3.5 3.5 0 1 1 7 0z" fill="#c4c5c2"/><path transform="matrix(1.0566 0 0 1.0566 -17.198 24.863)" d="M291.688-437.594a3.313 3.313 0 1 1-6.625 0 3.313 3.313 0 1 1 6.625 0z" fill="url(#eD)"/><path d="M277-437.5a3.5 3.5 0 1 1-7 0 3.5 3.5 0 1 1 7 0z" fill="#c4c5c2"/><path transform="matrix(1.0566 0 0 1.0566 -31.198 24.863)" d="M291.688-437.594a3.313 3.313 0 1 1-6.625 0 3.313 3.313 0 1 1 6.625 0z" fill="url(#eE)"/><g transform="translate(-1)"><path d="M280.469-440.969c-3.58 0-6.469 2.92-6.469 6.5 0 2.37 1.35 4.338 3.25 5.469h6.469c1.9-1.131 3.25-3.13 3.25-5.5 0-3.58-2.92-6.469-6.5-6.469z" fill="#c4c5c2"/><path d="M280.5-441a6.502 6.502 0 0 0-6.5 6.5c0 2.376 1.345 4.366 3.25 5.5h6.5c1.905-1.134 3.25-3.124 3.25-5.5 0-3.588-2.912-6.5-6.5-6.5z" fill="url(#eF)"/></g><path d="M291.688-437.594a3.313 3.313 0 1 1-6.625 0 3.313 3.313 0 1 1 6.625 0z" transform="translate(9.83 -35.689) scale(.90566)" fill="url(#eG)"/><path d="M292.956-437.334c-.001 2.685-3.269 3.714-3.269 3.714s2.349-1.626 2.337-3.705l.932-.009z" fill="#888a85" fill-rule="evenodd"/><g transform="matrix(1.14286 0 0 1.14286 -28.571 67)"><path d="M277-437.5a3.5 3.5 0 1 1-7 0 3.5 3.5 0 1 1 7 0z" fill="#c4c5c2"/><path transform="matrix(1.0566 0 0 1.0566 -31.198 24.863)" d="M291.688-437.594a3.313 3.313 0 1 1-6.625 0 3.313 3.313 0 1 1 6.625 0z" fill="url(#eH)"/></g></g><g transform="translate(23 158)"><path d="M280.5-445.5c-2.27 0-4.11 1.55-4.719 3.625-.693-.364-1.444-.625-2.281-.625-2.76 0-5 2.24-5 5 0 .579.163 1.108.344 1.625-1.374.77-2.344 2.189-2.344 3.875 0 2.484 2.016 4.5 4.5 4.5h19c2.484 0 4.5-2.016 4.5-4.5 0-1.686-.97-3.104-2.344-3.875.181-.517.344-1.046.344-1.625 0-2.76-2.24-5-5-5-.837 0-1.588.261-2.281.625-.61-2.075-2.448-3.625-4.719-3.625z" fill="#c4c5c2" stroke="#888a85" stroke-miterlimit="2"/><path d="M280.5-445c-2.19 0-3.724 1.336-4.396 3.844-.668-.344-1.547-.834-2.354-.834-2.717 0-4.755 1.939-4.755 4.546 0 .546.267 1.333.442 1.822-1.325.728-2.437 1.89-2.437 3.372 0 2.346 1.546 4.25 4.34 4.25h18.32c2.772 0 4.34-1.904 4.34-4.25 0-1.592-1.112-2.666-2.437-3.394.175-.489.464-1.254.464-1.8 0-2.607-2.116-4.568-4.777-4.568-.807 0-1.642.49-2.31.833-.65-2.421-2.25-3.821-4.44-3.821z" fill="url(#eI)"/><path d="M284-440.5a3.5 3.5 0 1 1-7 0 3.5 3.5 0 1 1 7 0z" fill="#c4c5c2"/><path transform="matrix(1.0566 0 0 1.0566 -24.198 21.863)" d="M291.688-437.594a3.313 3.313 0 1 1-6.625 0 3.313 3.313 0 1 1 6.625 0z" fill="url(#eJ)"/><path fill="#c4c5c2" d="M271-438h20v9h-20z"/><path d="M274-432a3 3 0 1 1-6 0 3 3 0 1 1 6 0zM291-437.5a3.5 3.5 0 1 1-7 0 3.5 3.5 0 1 1 7 0z" fill="#c4c5c2"/><path transform="matrix(1.0566 0 0 1.0566 -17.198 24.863)" d="M291.688-437.594a3.313 3.313 0 1 1-6.625 0 3.313 3.313 0 1 1 6.625 0z" fill="url(#eK)"/><path d="M277-437.5a3.5 3.5 0 1 1-7 0 3.5 3.5 0 1 1 7 0z" fill="#c4c5c2"/><path transform="matrix(1.0566 0 0 1.0566 -31.198 24.863)" d="M291.688-437.594a3.313 3.313 0 1 1-6.625 0 3.313 3.313 0 1 1 6.625 0z" fill="url(#eL)"/><g transform="translate(-1)"><path d="M280.469-440.969c-3.58 0-6.469 2.92-6.469 6.5 0 2.37 1.35 4.338 3.25 5.469h6.469c1.9-1.131 3.25-3.13 3.25-5.5 0-3.58-2.92-6.469-6.5-6.469z" fill="#c4c5c2"/><path d="M280.5-441a6.502 6.502 0 0 0-6.5 6.5c0 2.376 1.345 4.366 3.25 5.5h6.5c1.905-1.134 3.25-3.124 3.25-5.5 0-3.588-2.912-6.5-6.5-6.5z" fill="url(#eM)"/></g><path d="M291.688-437.594a3.313 3.313 0 1 1-6.625 0 3.313 3.313 0 1 1 6.625 0z" transform="translate(9.83 -35.689) scale(.90566)" fill="url(#eN)"/><path d="M292.956-437.334c-.001 2.685-3.269 3.714-3.269 3.714s2.349-1.626 2.337-3.705l.932-.009z" fill="#888a85" fill-rule="evenodd"/><g transform="matrix(1.14286 0 0 1.14286 -28.571 67)"><path d="M277-437.5a3.5 3.5 0 1 1-7 0 3.5 3.5 0 1 1 7 0z" fill="#c4c5c2"/><path transform="matrix(1.0566 0 0 1.0566 -31.198 24.863)" d="M291.688-437.594a3.313 3.313 0 1 1-6.625 0 3.313 3.313 0 1 1 6.625 0z" fill="url(#eO)"/></g></g></g></svg><svg width="48" height="48" viewBox="0 0 48 48" id="weather-severe-alert" x="96" y="48"><defs><linearGradient xlink:href="#fa" id="fP" gradientUnits="userSpaceOnUse" x1="284.802" y1="-441.233" x2="288.9" y2="-436.831"/><linearGradient xlink:href="#fb" id="fO" gradientUnits="userSpaceOnUse" x1="286.666" y1="-439.484" x2="289.766" y2="-436.707"/><linearGradient xlink:href="#fc" id="fN" gradientUnits="userSpaceOnUse" gradientTransform="translate(-35 207)" x1="275.942" y1="-437.105" x2="279.975" y2="-431.918"/><linearGradient xlink:href="#fa" id="fM" gradientUnits="userSpaceOnUse" x1="285.941" y1="-439.939" x2="289.391" y2="-436.443"/><linearGradient xlink:href="#fd" id="fL" gradientUnits="userSpaceOnUse" x1="286.512" y1="-441.291" x2="289.854" y2="-436.145"/><linearGradient xlink:href="#fe" id="fK" gradientUnits="userSpaceOnUse" x1="287.517" y1="-439.753" x2="289.676" y2="-436.322"/><linearGradient xlink:href="#ff" id="fJ" gradientUnits="userSpaceOnUse" gradientTransform="translate(-34 207)" x1="271.022" y1="-441.052" x2="285.029" y2="-431.97"/><linearGradient xlink:href="#fa" id="fI" gradientUnits="userSpaceOnUse" x1="284.802" y1="-441.233" x2="288.9" y2="-436.831"/><linearGradient id="fb"><stop offset="0" stop-color="#fff"/><stop offset="1" stop-color="#fff" stop-opacity="0"/></linearGradient><linearGradient xlink:href="#fb" id="fH" gradientUnits="userSpaceOnUse" x1="286.666" y1="-439.484" x2="289.766" y2="-436.707"/><linearGradient id="fc"><stop offset="0" stop-color="#fff"/><stop offset="1" stop-color="#fff" stop-opacity="0"/></linearGradient><linearGradient xlink:href="#fc" id="fG" gradientUnits="userSpaceOnUse" gradientTransform="translate(-35 207)" x1="275.942" y1="-437.105" x2="279.975" y2="-431.918"/><linearGradient id="fa"><stop offset="0" stop-color="#fff"/><stop offset="1" stop-color="#fff" stop-opacity="0"/></linearGradient><linearGradient xlink:href="#fa" id="fF" gradientUnits="userSpaceOnUse" x1="285.941" y1="-439.939" x2="289.391" y2="-436.443"/><linearGradient id="fd"><stop offset="0" stop-color="#fff"/><stop offset="1" stop-color="#fff" stop-opacity="0"/></linearGradient><linearGradient xlink:href="#fd" id="fE" gradientUnits="userSpaceOnUse" x1="286.512" y1="-441.291" x2="289.854" y2="-436.145"/><linearGradient id="fe"><stop offset="0" stop-color="#fff"/><stop offset="1" stop-color="#fff" stop-opacity="0"/></linearGradient><linearGradient xlink:href="#fe" id="fD" gradientUnits="userSpaceOnUse" x1="287.517" y1="-439.753" x2="289.676" y2="-436.322"/><linearGradient id="ff"><stop offset="0" stop-color="#fff"/><stop offset="1" stop-color="#fff" stop-opacity="0"/></linearGradient><linearGradient xlink:href="#ff" id="fC" gradientUnits="userSpaceOnUse" gradientTransform="translate(-34 207)" x1="271.022" y1="-441.052" x2="285.029" y2="-431.97"/><linearGradient id="fg"><stop offset="0" stop-color="#fff"/><stop offset="1" stop-color="#fff" stop-opacity="0"/></linearGradient><linearGradient xlink:href="#fg" id="fB" gradientUnits="userSpaceOnUse" x1="238.005" y1="-388.475" x2="245.655" y2="-382.645"/><linearGradient id="fh"><stop offset="0" stop-color="#fff"/><stop offset="1" stop-color="#fff" stop-opacity="0"/></linearGradient><linearGradient xlink:href="#fh" id="fA" gradientUnits="userSpaceOnUse" x1="230.876" y1="-390.44" x2="235.257" y2="-386.959"/><linearGradient id="fi"><stop offset="0" stop-color="#fff"/><stop offset="1" stop-color="#fff" stop-opacity="0"/></linearGradient><linearGradient xlink:href="#fi" id="fz" gradientUnits="userSpaceOnUse" x1="246.74" y1="-391.314" x2="252.698" y2="-385.352"/><linearGradient id="fj"><stop offset="0" stop-color="#fff"/><stop offset="1" stop-color="#fff" stop-opacity="0"/></linearGradient><linearGradient xlink:href="#fj" id="fy" gradientUnits="userSpaceOnUse" x1="240.074" y1="-393.407" x2="245.827" y2="-388.55"/><linearGradient id="fk"><stop offset="0" stop-color="#fff"/><stop offset="1" stop-color="#fff" stop-opacity="0"/></linearGradient><linearGradient xlink:href="#fk" id="fx" gradientUnits="userSpaceOnUse" gradientTransform="translate(69 155)" x1="228.503" y1="-392.306" x2="266.364" y2="-379.269"/><linearGradient xlink:href="#fl" id="fQ" gradientUnits="userSpaceOnUse" gradientTransform="matrix(.87498 0 0 .92148 226.238 -218.57)" x1="8.547" y1="30.282" x2="25.598" y2="52.331"/><linearGradient id="fw"><stop offset="0" stop-color="#fff"/><stop offset="1" stop-color="#fff" stop-opacity="0"/></linearGradient><linearGradient id="fm"><stop offset="0"/><stop offset="1" stop-opacity="0"/></linearGradient><linearGradient id="fl" gradientUnits="userSpaceOnUse" x1="4.191" y1="11.113" x2="47.32" y2="56.052"><stop offset="0" stop-color="#fff"/><stop offset="1" stop-color="#fff" stop-opacity=".34"/></linearGradient><linearGradient id="fq"><stop offset="0" stop-color="#fff"/><stop offset="1" stop-color="#fff" stop-opacity="0"/></linearGradient><linearGradient id="fn"><stop offset="0" stop-color="#fff"/><stop offset="1" stop-color="#fff" stop-opacity="0"/></linearGradient><linearGradient id="fv"><stop offset="0" stop-color="#fff"/><stop offset="1" stop-color="#fff" stop-opacity="0"/></linearGradient><linearGradient id="fo"><stop offset="0" stop-color="#fff"/><stop offset="1" stop-color="#fff" stop-opacity="0"/></linearGradient><linearGradient id="fu"><stop offset="0" stop-color="#edd400"/><stop offset="1" stop-color="#edd400" stop-opacity="0"/></linearGradient><linearGradient id="fp"><stop offset="0" stop-color="#fcaf3e"/><stop offset="1" stop-color="#fcaf3e" stop-opacity="0"/></linearGradient><linearGradient id="ft"><stop offset="0" stop-color="#fce94f"/><stop offset="1" stop-color="#fce94f" stop-opacity="0"/></linearGradient><linearGradient id="fs"><stop offset="0" stop-color="#eeeeec"/><stop offset="1" stop-color="#eeeeec" stop-opacity="0"/></linearGradient><linearGradient id="fr"><stop offset="0" stop-color="#fff"/><stop offset="1" stop-color="#fff" stop-opacity="0"/></linearGradient></defs><g transform="matrix(.99967 0 0 1 -286.933 245.025)"><path d="M311.5-243c-2.772 0-5.108 1.574-6.406 3.813-.945-.476-1.965-.813-3.094-.813-3.864 0-7 3.136-7 7s3.136 7 7 7c2.42 0 4.43-1.32 5.688-3.187 1.134.69 2.388 1.187 3.812 1.187.913 0 1.753-.232 2.563-.531.51.868 1.179 1.58 2 2.156-.008.13-.063.243-.063.375 0 3.864 3.136 7 7 7s7-3.136 7-7c0-2.37-1.259-4.358-3.063-5.625.008-.13.063-.243.063-.375 0-3.864-3.136-7-7-7-.623 0-1.175.222-1.75.375-1.195-2.559-3.741-4.375-6.75-4.375z" fill="#555753"/><path d="M311.5-242c-2.78 0-5.135 1.762-6.063 4.219-.985-.71-2.13-1.219-3.437-1.219-3.312 0-6 2.688-6 6s2.688 6 6 6c2.428 0 4.493-1.456 5.438-3.531 1.12.917 2.502 1.531 4.062 1.531 1.075 0 2.044-.319 2.938-.781.398 1 1.1 1.786 1.937 2.437-.18.596-.375 1.19-.375 1.844 0 3.588 2.912 6.5 6.5 6.5s6.5-2.912 6.5-6.5c0-2.36-1.334-4.33-3.219-5.469.063-.347.219-.666.219-1.031a6.002 6.002 0 0 0-8.406-5.5c-.854-2.594-3.215-4.5-6.094-4.5z" fill="url(#fx)"/><path d="M329-225.5a6.5 6.5 0 1 1-13 0 6.5 6.5 0 1 1 13 0zM317-235.5a5.5 5.5 0 1 1-11 0 5.5 5.5 0 1 1 11 0z" fill="#888a85"/><path transform="translate(96.18 108.11) scale(.88263)" d="M250.183-389.301a6.231 6.231 0 1 1-12.463 0 6.231 6.231 0 1 1 12.463 0z" opacity=".494" fill="url(#fy)"/><path d="M325-231.5a5.5 5.5 0 1 1-11 0 5.5 5.5 0 1 1 11 0z" fill="#888a85"/><path transform="matrix(.91173 0 0 .91173 90.454 120.234)" d="M257.254-385.788a6.033 6.033 0 1 1-12.065 0 6.033 6.033 0 1 1 12.065 0z" opacity=".494" fill="url(#fz)"/><g><path d="M307-233a5 5 0 1 1-10 0 5 5 0 1 1 10 0z" fill="#888a85"/><path transform="matrix(1.1428 0 0 1.1428 35.232 210.277)" d="M237.809-387.887a4.375 4.375 0 1 1-8.75 0 4.375 4.375 0 1 1 8.75 0z" opacity=".494" fill="url(#fA)"/></g><g><path d="M318-229a7 7 0 1 1-14 0 7 7 0 1 1 14 0z" fill="#888a85"/><path transform="matrix(1.03864 0 0 1.03864 59.85 169.49)" d="M248.548-383.667a6.74 6.74 0 1 1-13.48 0 6.74 6.74 0 1 1 13.48 0z" opacity=".494" fill="url(#fB)"/></g><g transform="translate(72 8)"><path d="M246.5-238.5c-2.27 0-4.11 1.55-4.719 3.625-.693-.364-1.444-.625-2.281-.625-2.76 0-5 2.24-5 5 0 .579.162 1.108.344 1.625-1.374.77-2.344 2.19-2.344 3.875 0 2.484 2.016 4.5 4.5 4.5h19c2.484 0 4.5-2.016 4.5-4.5 0-1.686-.97-3.104-2.344-3.875.181-.517.344-1.046.344-1.625 0-2.76-2.24-5-5-5-.837 0-1.588.261-2.281.625-.61-2.075-2.448-3.625-4.72-3.625z" fill="#888a85" stroke="#555753" stroke-miterlimit="2"/><path d="M246.5-238c-2.19 0-3.724 1.336-4.396 3.844-.668-.344-1.547-.834-2.354-.834-2.717 0-4.755 1.94-4.755 4.546 0 .547.267 1.333.442 1.822-1.325.728-2.437 1.89-2.437 3.372 0 2.346 1.546 4.25 4.34 4.25h18.32c2.772 0 4.34-1.904 4.34-4.25 0-1.592-1.112-2.666-2.437-3.394.175-.489.464-1.253.464-1.8 0-2.607-2.116-4.568-4.777-4.568-.807 0-1.642.49-2.31.833-.65-2.421-2.25-3.82-4.44-3.82z" fill="url(#fC)"/><path d="M250-233.5a3.5 3.5 0 1 1-7 0 3.5 3.5 0 1 1 7 0z" fill="#888a85"/><path d="M291.688-437.594a3.313 3.313 0 1 1-6.625 0 3.313 3.313 0 1 1 6.625 0z" transform="matrix(1.0566 0 0 1.0566 -58.198 228.863)" opacity=".478" fill="url(#fD)"/><path fill="#888a85" d="M237-231h20v9h-20z"/><path d="M240-225a3 3 0 1 1-6 0 3 3 0 1 1 6 0zM257-230.5a3.5 3.5 0 1 1-7 0 3.5 3.5 0 1 1 7 0z" fill="#888a85"/><path d="M291.688-437.594a3.313 3.313 0 1 1-6.625 0 3.313 3.313 0 1 1 6.625 0z" transform="matrix(1.0566 0 0 1.0566 -51.198 231.863)" opacity=".478" fill="url(#fE)"/><path d="M243-230.5a3.5 3.5 0 1 1-7 0 3.5 3.5 0 1 1 7 0z" fill="#888a85"/><path d="M291.688-437.594a3.313 3.313 0 1 1-6.625 0 3.313 3.313 0 1 1 6.625 0z" transform="matrix(1.0566 0 0 1.0566 -65.198 231.863)" opacity=".478" fill="url(#fF)"/><path d="M245.469-233.969c-3.58 0-6.47 2.921-6.47 6.5 0 2.371 1.35 4.338 3.25 5.47h6.47c1.9-1.132 3.25-3.13 3.25-5.5 0-3.58-2.921-6.47-6.5-6.47z" fill="#888a85"/><path d="M245.5-234a6.502 6.502 0 0 0-6.5 6.5c0 2.376 1.345 4.366 3.25 5.5h6.5c1.905-1.134 3.25-3.124 3.25-5.5 0-3.588-2.912-6.5-6.5-6.5z" opacity=".478" fill="url(#fG)"/><path d="M291.688-437.594a3.313 3.313 0 1 1-6.625 0 3.313 3.313 0 1 1 6.625 0z" transform="translate(-24.17 171.311) scale(.90566)" opacity=".478" fill="url(#fH)"/><path d="M258.956-230.334c-.001 2.685-3.269 3.714-3.269 3.714s2.349-1.626 2.337-3.705l.932-.009z" fill="#555753" fill-rule="evenodd"/><path d="M254-226a4 4 0 1 1-8 0 4 4 0 1 1 8 0z" fill="#888a85"/><path d="M291.688-437.594a3.313 3.313 0 1 1-6.625 0 3.313 3.313 0 1 1 6.625 0z" transform="matrix(1.20755 0 0 1.20755 -98.227 302.415)" opacity=".478" fill="url(#fI)"/></g><g transform="translate(56.986 3.984)"><path d="M246.5-238.5c-2.27 0-4.11 1.55-4.719 3.625-.693-.364-1.444-.625-2.281-.625-2.76 0-5 2.24-5 5 0 .579.162 1.108.344 1.625-1.374.77-2.344 2.19-2.344 3.875 0 2.484 2.016 4.5 4.5 4.5h19c2.484 0 4.5-2.016 4.5-4.5 0-1.686-.97-3.104-2.344-3.875.181-.517.344-1.046.344-1.625 0-2.76-2.24-5-5-5-.837 0-1.588.261-2.281.625-.61-2.075-2.448-3.625-4.72-3.625z" fill="#888a85" stroke="#555753" stroke-miterlimit="2"/><path d="M246.5-238c-2.19 0-3.724 1.336-4.396 3.844-.668-.344-1.547-.834-2.354-.834-2.717 0-4.755 1.94-4.755 4.546 0 .547.267 1.333.442 1.822-1.325.728-2.437 1.89-2.437 3.372 0 2.346 1.546 4.25 4.34 4.25h18.32c2.772 0 4.34-1.904 4.34-4.25 0-1.592-1.112-2.666-2.437-3.394.175-.489.464-1.253.464-1.8 0-2.607-2.116-4.568-4.777-4.568-.807 0-1.642.49-2.31.833-.65-2.421-2.25-3.82-4.44-3.82z" fill="url(#fJ)"/><path d="M250-233.5a3.5 3.5 0 1 1-7 0 3.5 3.5 0 1 1 7 0z" fill="#888a85"/><path d="M291.688-437.594a3.313 3.313 0 1 1-6.625 0 3.313 3.313 0 1 1 6.625 0z" transform="matrix(1.0566 0 0 1.0566 -58.198 228.863)" opacity=".478" fill="url(#fK)"/><path fill="#888a85" d="M237-231h20v9h-20z"/><path d="M240-225a3 3 0 1 1-6 0 3 3 0 1 1 6 0zM257-230.5a3.5 3.5 0 1 1-7 0 3.5 3.5 0 1 1 7 0z" fill="#888a85"/><path d="M291.688-437.594a3.313 3.313 0 1 1-6.625 0 3.313 3.313 0 1 1 6.625 0z" transform="matrix(1.0566 0 0 1.0566 -51.198 231.863)" opacity=".478" fill="url(#fL)"/><path d="M243-230.5a3.5 3.5 0 1 1-7 0 3.5 3.5 0 1 1 7 0z" fill="#888a85"/><path d="M291.688-437.594a3.313 3.313 0 1 1-6.625 0 3.313 3.313 0 1 1 6.625 0z" transform="matrix(1.0566 0 0 1.0566 -65.198 231.863)" opacity=".478" fill="url(#fM)"/><path d="M245.469-233.969c-3.58 0-6.47 2.921-6.47 6.5 0 2.371 1.35 4.338 3.25 5.47h6.47c1.9-1.132 3.25-3.13 3.25-5.5 0-3.58-2.921-6.47-6.5-6.47z" fill="#888a85"/><path d="M245.5-234a6.502 6.502 0 0 0-6.5 6.5c0 2.376 1.345 4.366 3.25 5.5h6.5c1.905-1.134 3.25-3.124 3.25-5.5 0-3.588-2.912-6.5-6.5-6.5z" opacity=".478" fill="url(#fN)"/><path d="M291.688-437.594a3.313 3.313 0 1 1-6.625 0 3.313 3.313 0 1 1 6.625 0z" transform="translate(-24.17 171.311) scale(.90566)" opacity=".478" fill="url(#fO)"/><path d="M258.956-230.334c-.001 2.685-3.269 3.714-3.269 3.714s2.349-1.626 2.337-3.705l.932-.009z" fill="#555753" fill-rule="evenodd"/><path d="M254-226a4 4 0 1 1-8 0 4 4 0 1 1 8 0z" fill="#888a85"/><path d="M291.688-437.594a3.313 3.313 0 1 1-6.625 0 3.313 3.313 0 1 1 6.625 0z" transform="matrix(1.20755 0 0 1.20755 -98.227 302.415)" opacity=".478" fill="url(#fP)"/></g></g><g transform="translate(-220.923 219.385)"><path d="M257.225-181.393l-10.946-20.518a1.692 1.692 0 0 0-1.51-.887c-.628 0-1.194.38-1.509.95l-10.693 20.518c-.252.507-.252 1.204.062 1.71.315.507.818.76 1.447.76h21.639c.629 0 1.195-.316 1.447-.823.314-.507.314-1.14.063-1.71z" fill="#c00" stroke="#9f0000"/><path d="M235.971-181.877c-.183.323 0 .581.306.581h17.242c.306 0 .49-.258.306-.58l-8.744-17.177c-.183-.323-.428-.323-.55 0l-8.56 17.176z" stroke="none" fill="#fff"/><path d="M244.781-183.296a1.299 1.299 0 0 1-1.319-1.321c0-.805.517-1.322 1.32-1.322.802 0 1.26.517 1.318 1.322 0 .747-.516 1.321-1.319 1.321zm-.802-3.39l-.345-6.61h2.294l-.344 6.61h-1.663.058z" stroke="none"/><path d="M255.872-182.085l-9.9-18.66c-.422-.804-.573-1.062-1.21-1.062-.546 0-.83.376-1.223 1.135l-9.637 18.645c-.56 1.046-.62 1.32-.346 1.78.273.46.622.436 1.91.466h19.094c1.2.015 1.469-.078 1.688-.539.273-.46.154-.826-.376-1.765z" opacity=".5" fill="none" stroke="url(#fQ)"/></g></svg></svg>